%TF.GenerationSoftware,KiCad,Pcbnew,7.0.1*%
%TF.CreationDate,2023-11-27T14:14:32+03:00*%
%TF.ProjectId,motordriver,6d6f746f-7264-4726-9976-65722e6b6963,rev?*%
%TF.SameCoordinates,Original*%
%TF.FileFunction,Soldermask,Bot*%
%TF.FilePolarity,Negative*%
%FSLAX46Y46*%
G04 Gerber Fmt 4.6, Leading zero omitted, Abs format (unit mm)*
G04 Created by KiCad (PCBNEW 7.0.1) date 2023-11-27 14:14:32*
%MOMM*%
%LPD*%
G01*
G04 APERTURE LIST*
G04 Aperture macros list*
%AMRoundRect*
0 Rectangle with rounded corners*
0 $1 Rounding radius*
0 $2 $3 $4 $5 $6 $7 $8 $9 X,Y pos of 4 corners*
0 Add a 4 corners polygon primitive as box body*
4,1,4,$2,$3,$4,$5,$6,$7,$8,$9,$2,$3,0*
0 Add four circle primitives for the rounded corners*
1,1,$1+$1,$2,$3*
1,1,$1+$1,$4,$5*
1,1,$1+$1,$6,$7*
1,1,$1+$1,$8,$9*
0 Add four rect primitives between the rounded corners*
20,1,$1+$1,$2,$3,$4,$5,0*
20,1,$1+$1,$4,$5,$6,$7,0*
20,1,$1+$1,$6,$7,$8,$9,0*
20,1,$1+$1,$8,$9,$2,$3,0*%
%AMHorizOval*
0 Thick line with rounded ends*
0 $1 width*
0 $2 $3 position (X,Y) of the first rounded end (center of the circle)*
0 $4 $5 position (X,Y) of the second rounded end (center of the circle)*
0 Add line between two ends*
20,1,$1,$2,$3,$4,$5,0*
0 Add two circle primitives to create the rounded ends*
1,1,$1,$2,$3*
1,1,$1,$4,$5*%
%AMRotRect*
0 Rectangle, with rotation*
0 The origin of the aperture is its center*
0 $1 length*
0 $2 width*
0 $3 Rotation angle, in degrees counterclockwise*
0 Add horizontal line*
21,1,$1,$2,0,0,$3*%
G04 Aperture macros list end*
%ADD10C,6.400000*%
%ADD11R,2.715000X2.715000*%
%ADD12C,2.715000*%
%ADD13R,1.700000X1.700000*%
%ADD14O,1.700000X1.700000*%
%ADD15C,2.175000*%
%ADD16C,2.300000*%
%ADD17C,3.200000*%
%ADD18C,1.800000*%
%ADD19C,1.416000*%
%ADD20C,2.000000*%
%ADD21R,3.000000X3.000000*%
%ADD22C,3.000000*%
%ADD23C,1.200000*%
%ADD24R,2.500000X2.500000*%
%ADD25C,1.700000*%
%ADD26RoundRect,0.237500X-0.237500X0.250000X-0.237500X-0.250000X0.237500X-0.250000X0.237500X0.250000X0*%
%ADD27RoundRect,0.237500X0.237500X-0.250000X0.237500X0.250000X-0.237500X0.250000X-0.237500X-0.250000X0*%
%ADD28RoundRect,0.250000X-0.167938X0.751301X-0.751301X0.167938X0.167938X-0.751301X0.751301X-0.167938X0*%
%ADD29RoundRect,0.237500X-0.300000X-0.237500X0.300000X-0.237500X0.300000X0.237500X-0.300000X0.237500X0*%
%ADD30RoundRect,0.250000X-0.400000X-0.625000X0.400000X-0.625000X0.400000X0.625000X-0.400000X0.625000X0*%
%ADD31RoundRect,0.237500X0.237500X-0.300000X0.237500X0.300000X-0.237500X0.300000X-0.237500X-0.300000X0*%
%ADD32R,0.400000X0.650000*%
%ADD33R,0.600000X1.300000*%
%ADD34RoundRect,0.237500X-0.250000X-0.237500X0.250000X-0.237500X0.250000X0.237500X-0.250000X0.237500X0*%
%ADD35RoundRect,0.237500X0.344715X-0.008839X-0.008839X0.344715X-0.344715X0.008839X0.008839X-0.344715X0*%
%ADD36RoundRect,0.250000X0.159099X-0.512652X0.512652X-0.159099X-0.159099X0.512652X-0.512652X0.159099X0*%
%ADD37RoundRect,0.250000X-0.650000X0.412500X-0.650000X-0.412500X0.650000X-0.412500X0.650000X0.412500X0*%
%ADD38RoundRect,0.250000X0.375000X0.625000X-0.375000X0.625000X-0.375000X-0.625000X0.375000X-0.625000X0*%
%ADD39RoundRect,0.250000X0.512652X0.159099X0.159099X0.512652X-0.512652X-0.159099X-0.159099X-0.512652X0*%
%ADD40RotRect,2.050000X3.050000X45.000000*%
%ADD41R,1.200000X0.600000*%
%ADD42RotRect,2.800000X2.800000X97.000000*%
%ADD43HorizOval,2.800000X0.000000X0.000000X0.000000X0.000000X0*%
%ADD44RotRect,2.900000X5.400000X315.000000*%
G04 APERTURE END LIST*
D10*
%TO.C,H8*%
X70574964Y-32301993D03*
%TD*%
%TO.C,H13*%
X119380000Y-83312000D03*
%TD*%
D11*
%TO.C,Q11*%
X190850000Y-51730000D03*
D12*
X196300000Y-51730000D03*
X201750000Y-51730000D03*
%TD*%
D13*
%TO.C,J15*%
X35450000Y-115200000D03*
D14*
X35450000Y-117740000D03*
X35450000Y-120280000D03*
%TD*%
D15*
%TO.C,WSC3*%
X226700000Y-106200000D03*
X224160000Y-106200000D03*
X221620000Y-106200000D03*
X226700000Y-108740000D03*
D16*
X224160000Y-108740000D03*
X221620000Y-108740000D03*
X226700000Y-111280000D03*
X224160000Y-111280000D03*
X221620000Y-111280000D03*
X226700000Y-113820000D03*
X224160000Y-113820000D03*
X221620000Y-113820000D03*
%TD*%
D17*
%TO.C,H1*%
X30000000Y-32250000D03*
%TD*%
D13*
%TO.C,J2*%
X128750000Y-124345000D03*
D14*
X128750000Y-121805000D03*
%TD*%
D15*
%TO.C,WSC7*%
X91490800Y-31699200D03*
X91490800Y-34239200D03*
X91490800Y-36779200D03*
X94030800Y-31699200D03*
D16*
X94030800Y-34239200D03*
X94030800Y-36779200D03*
X96570800Y-31699200D03*
X96570800Y-34239200D03*
X96570800Y-36779200D03*
X99110800Y-31699200D03*
X99110800Y-34239200D03*
X99110800Y-36779200D03*
%TD*%
D13*
%TO.C,J4*%
X88870000Y-114220000D03*
D14*
X91410000Y-114220000D03*
X93950000Y-114220000D03*
X96490000Y-114220000D03*
X99030000Y-114220000D03*
X101570000Y-114220000D03*
%TD*%
D15*
%TO.C,WSC8*%
X154076400Y-31800800D03*
X154076400Y-34340800D03*
X154076400Y-36880800D03*
X156616400Y-31800800D03*
D16*
X156616400Y-34340800D03*
X156616400Y-36880800D03*
X159156400Y-31800800D03*
X159156400Y-34340800D03*
X159156400Y-36880800D03*
X161696400Y-31800800D03*
X161696400Y-34340800D03*
X161696400Y-36880800D03*
%TD*%
D17*
%TO.C,H23*%
X266446000Y-61138000D03*
%TD*%
D11*
%TO.C,Q1*%
X45996000Y-52070000D03*
D12*
X51446000Y-52070000D03*
X56896000Y-52070000D03*
%TD*%
D18*
%TO.C,LESR1*%
X34225000Y-74400000D03*
X36765000Y-74400000D03*
X39305000Y-74400000D03*
X39305000Y-87100000D03*
X36765000Y-87100000D03*
X34225000Y-87100000D03*
D19*
X26595000Y-83607000D03*
X26595000Y-81703000D03*
X26595000Y-79797000D03*
X26605000Y-77892000D03*
%TD*%
D13*
%TO.C,J1*%
X99817000Y-120700000D03*
D14*
X102357000Y-120700000D03*
%TD*%
D11*
%TO.C,Q6*%
X113828000Y-63862000D03*
D12*
X119278000Y-63862000D03*
X124728000Y-63862000D03*
%TD*%
D10*
%TO.C,H9*%
X56988964Y-82951993D03*
%TD*%
D15*
%TO.C,WSC6*%
X163500000Y-94500000D03*
X160960000Y-94500000D03*
X158420000Y-94500000D03*
X163500000Y-97040000D03*
D16*
X160960000Y-97040000D03*
X158420000Y-97040000D03*
X163500000Y-99580000D03*
X160960000Y-99580000D03*
X158420000Y-99580000D03*
X163500000Y-102120000D03*
X160960000Y-102120000D03*
X158420000Y-102120000D03*
%TD*%
D10*
%TO.C,H15*%
X175668964Y-32099993D03*
%TD*%
D13*
%TO.C,J5*%
X114780000Y-130700000D03*
D14*
X112240000Y-130700000D03*
X109700000Y-130700000D03*
%TD*%
D10*
%TO.C,H17*%
X181864000Y-83058000D03*
%TD*%
D20*
%TO.C,SW1*%
X64842000Y-120904000D03*
X64842000Y-114404000D03*
X69342000Y-120904000D03*
X69342000Y-114404000D03*
%TD*%
D21*
%TO.C,J7*%
X122936000Y-152400000D03*
D22*
X128016000Y-152400000D03*
%TD*%
D11*
%TO.C,Q12*%
X176300000Y-63000000D03*
D12*
X181750000Y-63000000D03*
X187200000Y-63000000D03*
%TD*%
D20*
%TO.C,C116*%
X159918400Y-54250000D03*
X159918400Y-61750000D03*
%TD*%
D15*
%TO.C,WSC2*%
X226568000Y-81940400D03*
X224028000Y-81940400D03*
X221488000Y-81940400D03*
X226568000Y-84480400D03*
D16*
X224028000Y-84480400D03*
X221488000Y-84480400D03*
X226568000Y-87020400D03*
X224028000Y-87020400D03*
X221488000Y-87020400D03*
X226568000Y-89560400D03*
X224028000Y-89560400D03*
X221488000Y-89560400D03*
%TD*%
D13*
%TO.C,J9*%
X87590000Y-152660000D03*
D14*
X90130000Y-152660000D03*
X92670000Y-152660000D03*
X95210000Y-152660000D03*
X97750000Y-152660000D03*
X100290000Y-152660000D03*
X102830000Y-152660000D03*
X105370000Y-152660000D03*
%TD*%
D13*
%TO.C,J16*%
X56591200Y-100091000D03*
D14*
X56591200Y-102631000D03*
X56591200Y-105171000D03*
%TD*%
D23*
%TO.C,IC5*%
X46609000Y-146819000D03*
X46609000Y-139319000D03*
%TD*%
D13*
%TO.C,J14*%
X82600000Y-104625000D03*
D14*
X82600000Y-102085000D03*
X82600000Y-99545000D03*
%TD*%
D13*
%TO.C,J13*%
X51612800Y-105156000D03*
D14*
X51612800Y-102616000D03*
X51612800Y-100076000D03*
%TD*%
D17*
%TO.C,H3*%
X28837000Y-147368000D03*
%TD*%
D11*
%TO.C,Q10*%
X196250000Y-63000000D03*
D12*
X201700000Y-63000000D03*
X207150000Y-63000000D03*
%TD*%
D13*
%TO.C,M2*%
X216865200Y-147777200D03*
D14*
X216865200Y-150317200D03*
%TD*%
D13*
%TO.C,J3*%
X80503000Y-152908000D03*
D14*
X77963000Y-152908000D03*
X75423000Y-152908000D03*
%TD*%
D11*
%TO.C,Q7*%
X128143000Y-51990000D03*
D12*
X133593000Y-51990000D03*
X139043000Y-51990000D03*
%TD*%
D11*
%TO.C,Q9*%
X170850000Y-51730000D03*
D12*
X176300000Y-51730000D03*
X181750000Y-51730000D03*
%TD*%
D13*
%TO.C,M1*%
X201676000Y-147721400D03*
D14*
X201676000Y-150261400D03*
%TD*%
D24*
%TO.C,TP8*%
X66294000Y-151892000D03*
%TD*%
D10*
%TO.C,H11*%
X113184964Y-32301993D03*
%TD*%
%TO.C,H18*%
X201930000Y-83058000D03*
%TD*%
D15*
%TO.C,WSC5*%
X100750000Y-94920000D03*
X98210000Y-94920000D03*
X95670000Y-94920000D03*
X100750000Y-97460000D03*
D16*
X98210000Y-97460000D03*
X95670000Y-97460000D03*
X100750000Y-100000000D03*
X98210000Y-100000000D03*
X95670000Y-100000000D03*
X100750000Y-102540000D03*
X98210000Y-102540000D03*
X95670000Y-102540000D03*
%TD*%
D20*
%TO.C,C96*%
X34671000Y-54857000D03*
X34671000Y-62357000D03*
%TD*%
D10*
%TO.C,H12*%
X133058964Y-32301993D03*
%TD*%
D13*
%TO.C,J17*%
X78587600Y-99360000D03*
D14*
X78587600Y-101900000D03*
X78587600Y-104440000D03*
%TD*%
D11*
%TO.C,Q2*%
X51584000Y-63528000D03*
D12*
X57034000Y-63528000D03*
X62484000Y-63528000D03*
%TD*%
D15*
%TO.C,WSC1*%
X216306400Y-31851600D03*
X216306400Y-34391600D03*
X216306400Y-36931600D03*
X218846400Y-31851600D03*
D16*
X218846400Y-34391600D03*
X218846400Y-36931600D03*
X221386400Y-31851600D03*
X221386400Y-34391600D03*
X221386400Y-36931600D03*
X223926400Y-31851600D03*
X223926400Y-34391600D03*
X223926400Y-36931600D03*
%TD*%
D13*
%TO.C,J12*%
X70866000Y-147432000D03*
D14*
X70866000Y-144892000D03*
X70866000Y-142352000D03*
%TD*%
D13*
%TO.C,J6*%
X120280000Y-139475000D03*
D14*
X120280000Y-142015000D03*
%TD*%
D25*
%TO.C,Y2*%
X71122233Y-128157767D03*
X74657767Y-124622233D03*
%TD*%
D13*
%TO.C,J18*%
X39400000Y-120310000D03*
D14*
X39400000Y-117770000D03*
X39400000Y-115230000D03*
%TD*%
D10*
%TO.C,H7*%
X51562000Y-32258000D03*
%TD*%
D17*
%TO.C,H4*%
X239597000Y-147268000D03*
%TD*%
%TO.C,H24*%
X266446000Y-81280000D03*
%TD*%
D15*
%TO.C,WSC4*%
X39000000Y-94920000D03*
X36460000Y-94920000D03*
X33920000Y-94920000D03*
X39000000Y-97460000D03*
D16*
X36460000Y-97460000D03*
X33920000Y-97460000D03*
X39000000Y-100000000D03*
X36460000Y-100000000D03*
X33920000Y-100000000D03*
X39000000Y-102540000D03*
X36460000Y-102540000D03*
X33920000Y-102540000D03*
%TD*%
D11*
%TO.C,Q3*%
X65607000Y-52088000D03*
D12*
X71057000Y-52088000D03*
X76507000Y-52088000D03*
%TD*%
D18*
%TO.C,LESR4*%
X217233000Y-63794800D03*
X217233000Y-61254800D03*
X217233000Y-58714800D03*
X229933000Y-58714800D03*
X229933000Y-61254800D03*
X229933000Y-63794800D03*
D19*
X226440000Y-71424800D03*
X224536000Y-71424800D03*
X222630000Y-71424800D03*
X220725000Y-71414800D03*
%TD*%
D13*
%TO.C,J20*%
X60080000Y-120930000D03*
D14*
X60080000Y-123470000D03*
X60080000Y-126010000D03*
%TD*%
D21*
%TO.C,J11*%
X110490000Y-152400000D03*
D22*
X115570000Y-152400000D03*
%TD*%
D17*
%TO.C,H2*%
X240000000Y-32500000D03*
%TD*%
D13*
%TO.C,J10*%
X123550000Y-122040000D03*
D14*
X123550000Y-124580000D03*
X123550000Y-127120000D03*
%TD*%
D11*
%TO.C,Q4*%
X71057000Y-63588000D03*
D12*
X76507000Y-63588000D03*
X81957000Y-63588000D03*
%TD*%
D10*
%TO.C,H14*%
X139192000Y-83566000D03*
%TD*%
D18*
%TO.C,LESR2*%
X95880000Y-74543000D03*
X98420000Y-74543000D03*
X100960000Y-74543000D03*
X100960000Y-87243000D03*
X98420000Y-87243000D03*
X95880000Y-87243000D03*
D19*
X88250000Y-83750000D03*
X88250000Y-81846000D03*
X88250000Y-79940000D03*
X88260000Y-78035000D03*
%TD*%
D10*
%TO.C,H10*%
X76292964Y-83205993D03*
%TD*%
D11*
%TO.C,Q8*%
X133550000Y-64000000D03*
D12*
X139000000Y-64000000D03*
X144450000Y-64000000D03*
%TD*%
D13*
%TO.C,J19*%
X80020000Y-114210000D03*
D14*
X82560000Y-114210000D03*
X85100000Y-114210000D03*
%TD*%
D13*
%TO.C,J8*%
X65024000Y-110490000D03*
D14*
X67564000Y-110490000D03*
X70104000Y-110490000D03*
X72644000Y-110490000D03*
X75184000Y-110490000D03*
%TD*%
D20*
%TO.C,C95*%
X97282000Y-54289000D03*
X97282000Y-61789000D03*
%TD*%
D24*
%TO.C,TP9*%
X70844000Y-151892000D03*
%TD*%
D10*
%TO.C,H16*%
X196342000Y-32004000D03*
%TD*%
D11*
%TO.C,Q5*%
X108300000Y-51990000D03*
D12*
X113750000Y-51990000D03*
X119200000Y-51990000D03*
%TD*%
D18*
%TO.C,LESR3*%
X158380000Y-74293000D03*
X160920000Y-74293000D03*
X163460000Y-74293000D03*
X163460000Y-86993000D03*
X160920000Y-86993000D03*
X158380000Y-86993000D03*
D19*
X150750000Y-83500000D03*
X150750000Y-81596000D03*
X150750000Y-79690000D03*
X150760000Y-77785000D03*
%TD*%
D26*
%TO.C,R134*%
X91970000Y-136427500D03*
X91970000Y-138252500D03*
%TD*%
D27*
%TO.C,R81*%
X110300000Y-117212500D03*
X110300000Y-115387500D03*
%TD*%
%TO.C,R139*%
X103886000Y-140208000D03*
X103886000Y-138383000D03*
%TD*%
D28*
%TO.C,C82*%
X131660854Y-104152746D03*
X129451146Y-106362454D03*
%TD*%
D29*
%TO.C,C93*%
X84735500Y-118110000D03*
X86460500Y-118110000D03*
%TD*%
D30*
%TO.C,R75*%
X240893600Y-41960800D03*
X243993600Y-41960800D03*
%TD*%
D31*
%TO.C,C90*%
X95760000Y-123810000D03*
X95760000Y-122085000D03*
%TD*%
D27*
%TO.C,R83*%
X92202000Y-120038500D03*
X92202000Y-118213500D03*
%TD*%
D32*
%TO.C,U9*%
X186959000Y-39619000D03*
X186309000Y-39619000D03*
X185659000Y-39619000D03*
X185659000Y-37719000D03*
X186959000Y-37719000D03*
%TD*%
D33*
%TO.C,Q14*%
X219166400Y-42081600D03*
X221066400Y-42081600D03*
X220116400Y-44481600D03*
%TD*%
D34*
%TO.C,R80*%
X141581500Y-112522000D03*
X143406500Y-112522000D03*
%TD*%
D27*
%TO.C,R82*%
X108700000Y-117212500D03*
X108700000Y-115387500D03*
%TD*%
D35*
%TO.C,R76*%
X132145235Y-109245235D03*
X130854765Y-107954765D03*
%TD*%
D29*
%TO.C,C114*%
X122835500Y-35941000D03*
X124560500Y-35941000D03*
%TD*%
D36*
%TO.C,C84*%
X144272000Y-115062000D03*
X145615502Y-113718498D03*
%TD*%
D37*
%TO.C,C87*%
X230632000Y-46748300D03*
X230632000Y-49873300D03*
%TD*%
D26*
%TO.C,R136*%
X87870000Y-136457500D03*
X87870000Y-138282500D03*
%TD*%
D35*
%TO.C,R79*%
X141996235Y-115834235D03*
X140705765Y-114543765D03*
%TD*%
D38*
%TO.C,D24*%
X144402000Y-110236000D03*
X141602000Y-110236000D03*
%TD*%
D34*
%TO.C,R84*%
X88495500Y-118110000D03*
X90320500Y-118110000D03*
%TD*%
D35*
%TO.C,R77*%
X131045235Y-110345235D03*
X129754765Y-109054765D03*
%TD*%
D32*
%TO.C,U7*%
X61864000Y-39431000D03*
X61214000Y-39431000D03*
X60564000Y-39431000D03*
X60564000Y-37531000D03*
X61864000Y-37531000D03*
%TD*%
D39*
%TO.C,C39*%
X121861040Y-117899325D03*
X120517538Y-116555823D03*
%TD*%
D29*
%TO.C,C115*%
X185446500Y-35941000D03*
X187171500Y-35941000D03*
%TD*%
D26*
%TO.C,R135*%
X89900000Y-136467500D03*
X89900000Y-138292500D03*
%TD*%
D31*
%TO.C,C92*%
X92202000Y-123952000D03*
X92202000Y-122227000D03*
%TD*%
D40*
%TO.C,D1*%
X124000000Y-116300000D03*
X129020458Y-111279542D03*
%TD*%
D30*
%TO.C,R116*%
X240893600Y-45872400D03*
X243993600Y-45872400D03*
%TD*%
D28*
%TO.C,C79*%
X129882854Y-102425546D03*
X127673146Y-104635254D03*
%TD*%
D35*
%TO.C,R78*%
X144790235Y-118628235D03*
X143499765Y-117337765D03*
%TD*%
D37*
%TO.C,C32*%
X139000000Y-102937500D03*
X139000000Y-106062500D03*
%TD*%
D27*
%TO.C,R138*%
X100330000Y-140104500D03*
X100330000Y-138279500D03*
%TD*%
%TO.C,R137*%
X102108000Y-140208000D03*
X102108000Y-138383000D03*
%TD*%
D24*
%TO.C,TP7*%
X148336000Y-116941600D03*
%TD*%
D41*
%TO.C,IC2*%
X225470400Y-48752800D03*
X225470400Y-47802800D03*
X225470400Y-46852800D03*
X227970400Y-46852800D03*
X227970400Y-47802800D03*
X227970400Y-48752800D03*
%TD*%
D27*
%TO.C,R28*%
X95758000Y-120038500D03*
X95758000Y-118213500D03*
%TD*%
%TO.C,R74*%
X93980000Y-120038500D03*
X93980000Y-118213500D03*
%TD*%
D37*
%TO.C,C38*%
X136400000Y-102937500D03*
X136400000Y-106062500D03*
%TD*%
D24*
%TO.C,TP6*%
X138557000Y-109601000D03*
%TD*%
D42*
%TO.C,C76*%
X66372798Y-81248361D03*
D43*
X60401200Y-32613600D03*
%TD*%
D34*
%TO.C,R68*%
X110387500Y-112100000D03*
X112212500Y-112100000D03*
%TD*%
D37*
%TO.C,C86*%
X219608400Y-46900700D03*
X219608400Y-50025700D03*
%TD*%
D42*
%TO.C,C118*%
X128501198Y-81400761D03*
D43*
X122529600Y-32766000D03*
%TD*%
D31*
%TO.C,C91*%
X93980000Y-123952000D03*
X93980000Y-122227000D03*
%TD*%
D37*
%TO.C,C85*%
X222605600Y-46849900D03*
X222605600Y-49974900D03*
%TD*%
D33*
%TO.C,Q13*%
X223179600Y-42081600D03*
X225079600Y-42081600D03*
X224129600Y-44481600D03*
%TD*%
D29*
%TO.C,C113*%
X60351500Y-35941000D03*
X62076500Y-35941000D03*
%TD*%
D32*
%TO.C,U8*%
X124348000Y-39558000D03*
X123698000Y-39558000D03*
X123048000Y-39558000D03*
X123048000Y-37658000D03*
X124348000Y-37658000D03*
%TD*%
D42*
%TO.C,C120*%
X191289998Y-81451561D03*
D43*
X185318400Y-32816800D03*
%TD*%
D44*
%TO.C,L5*%
X131572000Y-116332000D03*
X138572358Y-123332358D03*
%TD*%
M02*
