M48
; DRILL file {KiCad 7.0.1} date Mon Nov 27 14:14:39 2023
; FORMAT={-:-/ absolute / inch / decimal}
; #@! TF.CreationDate,2023-11-27T14:14:39+03:00
; #@! TF.GenerationSoftware,Kicad,Pcbnew,7.0.1
; #@! TF.FileFunction,Plated,1,4,PTH
FMAT,2
INCH
; #@! TA.AperFunction,Plated,PTH,ViaDrill
T1C0.0157
; #@! TA.AperFunction,Plated,PTH,ComponentDrill
T2C0.0358
; #@! TA.AperFunction,Plated,PTH,ComponentDrill
T3C0.0394
; #@! TA.AperFunction,Plated,PTH,ComponentDrill
T4C0.0433
; #@! TA.AperFunction,Plated,PTH,ComponentDrill
T5C0.0472
; #@! TA.AperFunction,Plated,PTH,ComponentDrill
T6C0.0551
; #@! TA.AperFunction,Plated,PTH,ComponentDrill
T7C0.0598
; #@! TA.AperFunction,Plated,PTH,ComponentDrill
T8C0.0630
; #@! TA.AperFunction,Plated,PTH,ComponentDrill
T9C0.0713
%
G90
G05
T1
X0.9732Y-2.9283
X0.9742Y-3.5066
X1.0181Y-2.9268
X1.049Y-3.5066
X1.0622Y-2.9224
X1.5118Y-4.3504
X1.5906Y-4.4094
X1.591Y-4.3632
X1.6272Y-4.4567
X1.628Y-4.6764
X1.7091Y-4.5772
X1.7165Y-4.2402
X1.7362Y-4.7913
X1.7362Y-4.8386
X1.7606Y-6.0224
X1.761Y-5.8836
X1.761Y-5.953
X1.787Y-4.7965
X1.7925Y-4.1768
X1.7976Y-3.4972
X1.81Y-2.302
X1.84Y-2.418
X1.8453Y-3.498
X1.8945Y-3.4972
X1.9055Y-4.1772
X1.9075Y-4.0965
X1.9094Y-4.2441
X1.91Y-6.02
X1.9104Y-5.8812
X1.9104Y-5.9506
X1.9697Y-3.7393
X1.9823Y-4.7949
X1.9921Y-4.2362
X2.04Y-4.81
X2.05Y-4.572
X2.0748Y-4.3819
X2.1142Y-3.5818
X2.1191Y-4.2047
X2.17Y-2.204
X2.2591Y-4.8091
X2.2795Y-4.3858
X2.28Y-2.85
X2.28Y-2.94
X2.28Y-3.03
X2.305Y-5.4497
X2.306Y-5.862
X2.3252Y-3.6047
X2.3622Y-5.6063
X2.365Y-2.85
X2.365Y-2.94
X2.365Y-3.03
X2.376Y-1.152
X2.382Y-2.264
X2.4008Y-3.8283
X2.415Y-4.3949
X2.415Y-4.4803
X2.45Y-2.94
X2.45Y-3.03
X2.452Y-2.264
X2.5118Y-3.9291
X2.5213Y-1.415
X2.5224Y-1.4776
X2.53Y-2.294
X2.535Y-2.94
X2.535Y-3.03
X2.563Y-5.1063
X2.57Y-3.71
X2.594Y-2.228
X2.62Y-2.94
X2.62Y-3.03
X2.6283Y-4.8618
X2.6299Y-4.695
X2.6374Y-4.448
X2.6378Y-4.5165
X2.6437Y-4.0866
X2.705Y-2.94
X2.705Y-3.03
X2.7099Y-5.2024
X2.7283Y-4.0827
X2.73Y-3.892
X2.7327Y-4.8972
X2.7441Y-5.3189
X2.7771Y-3.6725
X2.7835Y-4.8504
X2.785Y-3.82
X2.7887Y-4.5613
X2.79Y-2.94
X2.79Y-3.03
X2.7953Y-5.4331
X2.8067Y-4.4366
X2.8071Y-4.5157
X2.856Y-5.2201
X2.86Y-4.5281
X2.875Y-2.85
X2.875Y-2.94
X2.875Y-3.03
X2.8996Y-4.74
X2.9055Y-5.2008
X2.9333Y-5.173
X2.934Y-2.208
X2.945Y-4.62
X2.9583Y-4.528
X2.96Y-2.85
X2.96Y-2.94
X2.96Y-3.03
X2.9945Y-4.6445
X3.0039Y-5.3897
X3.0108Y-4.6033
X3.0118Y-4.74
X3.013Y-5.498
X3.0157Y-5.937
X3.0197Y-5.0827
X3.0709Y-4.7165
X3.0748Y-4.4685
X3.0748Y-4.7874
X3.0949Y-5.5724
X3.1Y-4.28
X3.1102Y-4.622
X3.1102Y-4.7126
X3.13Y-5.38
X3.146Y-2.266
X3.15Y-5.2028
X3.17Y-4.278
X3.1732Y-4.1829
X3.1772Y-4.622
X3.1797Y-5.173
X3.1828Y-5.2244
X3.2084Y-5.1461
X3.2126Y-4.724
X3.22Y-2.266
X3.2244Y-4.3858
X3.2244Y-4.9335
X3.232Y-2.782
X3.2361Y-5.1182
X3.2382Y-5.4571
X3.2387Y-5.2603
X3.264Y-5.0888
X3.2803Y-4.6327
X3.2953Y-4.2794
X3.2953Y-4.4055
X3.3035Y-5.2937
X3.3041Y-5.2482
X3.3079Y-5.1469
X3.3228Y-2.65
X3.3425Y-4.8268
X3.3504Y-4.2795
X3.3504Y-5.7953
X3.3504Y-5.8386
X3.356Y-2.23
X3.365Y-4.1941
X3.3797Y-4.9789
X3.3898Y-4.315
X3.3953Y-5.8795
X3.4022Y-3.5066
X3.413Y-4.8339
X3.4232Y-4.3465
X3.4299Y-4.7472
X3.4488Y-5.537
X3.4638Y-5.7677
X3.4697Y-4.3571
X3.4764Y-4.9764
X3.4774Y-3.5066
X3.4921Y-4.9006
X3.4961Y-4.8228
X3.5Y-5.3031
X3.5024Y-4.7445
X3.5118Y-5.7008
X3.5354Y-4.9764
X3.5429Y-5.5485
X3.5547Y-4.8972
X3.563Y-5.7008
X3.5646Y-5.0862
X3.5669Y-5.0069
X3.5787Y-5.3031
X3.618Y-5.782
X3.622Y-4.9911
X3.63Y-4.7508
X3.6323Y-5.1082
X3.6496Y-5.3101
X3.6693Y-5.5906
X3.7Y-4.7535
X3.7004Y-5.0385
X3.7055Y-5.7634
X3.7059Y-5.7173
X3.7087Y-5.249
X3.7205Y-5.5724
X3.7222Y-4.9337
X3.77Y-4.7488
X3.805Y-4.9316
X3.8209Y-5.6996
X3.8256Y-4.8291
X3.8276Y-4.65
X3.8386Y-4.8839
X3.8504Y-4.5866
X3.8709Y-5.6972
X3.8736Y-5.5591
X3.8819Y-5.0815
X3.8874Y-5.4504
X3.9205Y-5.8969
X3.9213Y-5.0815
X3.9264Y-5.7
X3.9492Y-5.4421
X3.9606Y-5.0815
X3.9646Y-5.3543
X4.0Y-5.0815
X4.0Y-5.3199
X4.0205Y-5.4449
X4.0551Y-5.5709
X4.0669Y-4.6181
X4.0894Y-5.4449
X4.0961Y-5.3691
X4.1024Y-5.1575
X4.1092Y-5.0276
X4.12Y-5.78
X4.126Y-4.3838
X4.126Y-4.4238
X4.1299Y-5.3976
X4.1417Y-5.5591
X4.1429Y-5.4433
X4.143Y-5.122
X4.1457Y-4.1299
X4.1488Y-4.515
X4.155Y-5.487
X4.2169Y-3.4961
X4.2374Y-5.5787
X4.2374Y-5.6329
X4.248Y-2.308
X4.2677Y-4.7087
X4.2795Y-4.6147
X4.2874Y-4.3843
X4.2913Y-3.4961
X4.294Y-2.428
X4.296Y-3.758
X4.298Y-3.802
X4.298Y-3.8463
X4.3Y-3.93
X4.3051Y-4.8091
X4.31Y-4.18
X4.312Y-3.618
X4.3146Y-5.7016
X4.3385Y-4.7794
X4.3397Y-3.8463
X4.3425Y-3.5
X4.346Y-4.47
X4.355Y-4.89
X4.3671Y-3.6107
X4.385Y-4.6024
X4.41Y-3.7395
X4.412Y-3.662
X4.4134Y-4.5039
X4.4252Y-4.561
X4.4367Y-4.8965
X4.4678Y-3.6665
X4.4769Y-4.4563
X4.5266Y-4.5433
X4.5581Y-4.4591
X4.5584Y-4.3776
X4.5827Y-4.5984
X4.5984Y-4.4606
X4.606Y-2.202
X4.62Y-5.8193
X4.63Y-5.3488
X4.631Y-3.577
X4.6564Y-4.2767
X4.6843Y-5.348
X4.6989Y-4.3192
X4.6994Y-4.2338
X4.7055Y-5.7972
X4.708Y-3.9403
X4.7091Y-5.0504
X4.725Y-4.865
X4.7375Y-3.978
X4.7409Y-2.8644
X4.7409Y-2.9544
X4.7409Y-3.0444
X4.7414Y-4.1917
X4.7414Y-4.3617
X4.7419Y-4.2763
X4.752Y-3.5
X4.7551Y-5.3898
X4.778Y-4.01
X4.7839Y-4.2342
X4.7844Y-4.3188
X4.7992Y-5.3622
X4.814Y-2.26
X4.822Y-3.906
X4.8259Y-2.8644
X4.8259Y-2.9544
X4.8259Y-3.0444
X4.826Y-1.154
X4.8264Y-4.2767
X4.8287Y-5.8728
X4.8606Y-4.015
X4.8622Y-4.4567
X4.89Y-2.258
X4.89Y-4.4845
X4.9106Y-5.2846
X4.9109Y-2.9544
X4.9109Y-3.0444
X4.9213Y-5.2126
X4.9303Y-4.5173
X4.9303Y-5.8736
X4.9319Y-3.5035
X4.9429Y-4.7461
X4.95Y-4.27
X4.968Y-2.32
X4.9685Y-3.5472
X4.9724Y-4.4685
X4.9729Y-4.4292
X4.9763Y-4.3288
X4.9764Y-4.6209
X4.9783Y-4.3681
X4.9959Y-2.9544
X4.9959Y-3.0444
X5.0023Y-1.415
X5.0039Y-1.4803
X5.026Y-2.222
X5.026Y-4.114
X5.0299Y-5.8748
X5.0809Y-2.9544
X5.0809Y-3.0444
X5.0949Y-3.4331
X5.098Y-4.186
X5.0988Y-4.4272
X5.0992Y-4.378
X5.0993Y-4.4715
X5.1508Y-3.9701
X5.1516Y-3.8867
X5.1659Y-2.9544
X5.1659Y-3.0444
X5.2047Y-5.1764
X5.2217Y-4.0623
X5.2453Y-5.0578
X5.2509Y-2.9544
X5.2509Y-3.0444
X5.2638Y-6.063
X5.2795Y-4.3031
X5.2795Y-4.4291
X5.33Y-5.19
X5.33Y-5.27
X5.3359Y-2.8644
X5.3359Y-2.9544
X5.3359Y-3.0444
X5.342Y-3.9326
X5.38Y-4.62
X5.3819Y-3.7008
X5.398Y-2.196
X5.4Y-5.19
X5.4Y-5.27
X5.4209Y-2.8644
X5.4209Y-2.9544
X5.4209Y-3.0444
X5.4284Y-5.3196
X5.4646Y-4.1024
X5.5039Y-4.4764
X5.5498Y-5.1935
X5.562Y-3.894
X5.5836Y-5.1153
X5.606Y-2.264
X5.626Y-3.7008
X5.631Y-5.3352
X5.6335Y-4.0776
X5.668Y-2.754
X5.675Y-3.4679
X5.68Y-2.262
X5.6851Y-5.2478
X5.6853Y-5.4269
X5.7384Y-5.335
X5.75Y-2.652
X5.7559Y-4.3386
X5.7835Y-4.4331
X5.8073Y-2.1811
X5.873Y-3.6054
X5.8943Y-5.6545
X5.895Y-5.3845
X5.895Y-5.52
X5.9036Y-5.7692
X5.9478Y-3.6054
X5.9931Y-5.0381
X6.0593Y-5.655
X6.06Y-5.385
X6.06Y-5.52
X6.2243Y-5.6545
X6.225Y-5.3845
X6.225Y-5.52
X6.2348Y-4.3546
X6.2355Y-4.4173
X6.24Y-5.82
X6.2998Y-4.3546
X6.3005Y-4.4173
X6.3648Y-4.3546
X6.3655Y-4.4173
X6.4415Y-4.9788
X6.47Y-5.18
X6.47Y-5.26
X6.4764Y-4.5551
X6.4838Y-4.7464
X6.4838Y-4.8189
X6.4838Y-4.8914
X6.5354Y-4.5551
X6.54Y-5.18
X6.54Y-5.26
X6.5726Y-5.3099
X6.5906Y-4.5551
X6.6949Y-5.1838
X6.71Y-2.282
X6.744Y-2.388
X6.76Y-5.11
X6.7696Y-5.3348
X6.8248Y-5.426
X6.8252Y-5.2434
X6.8622Y-3.6105
X6.8622Y-3.6811
X6.8774Y-5.3354
X6.9213Y-3.5475
X7.045Y-5.65
X7.0457Y-5.38
X7.0457Y-5.5155
X7.072Y-3.6121
X7.072Y-3.6121
X7.09Y-2.188
X7.1122Y-5.7647
X7.1438Y-5.0335
X7.2029Y-2.8666
X7.2029Y-2.9566
X7.2029Y-3.0466
X7.21Y-5.6505
X7.2107Y-5.3805
X7.2107Y-5.5155
X7.2839Y-3.6065
X7.2879Y-2.8666
X7.2879Y-2.9566
X7.2879Y-3.0466
X7.2967Y-3.8539
X7.3Y-1.116
X7.302Y-2.248
X7.3499Y-4.3487
X7.3501Y-4.404
X7.3729Y-2.9566
X7.3729Y-3.0466
X7.374Y-2.246
X7.375Y-5.65
X7.3757Y-5.38
X7.3757Y-5.5155
X7.3971Y-5.863
X7.4149Y-4.3487
X7.4151Y-4.404
X7.4481Y-1.485
X7.4488Y-1.4134
X7.45Y-2.278
X7.4545Y-3.6998
X7.4579Y-2.9566
X7.4579Y-3.0466
X7.4799Y-4.3487
X7.4801Y-4.404
X7.51Y-2.212
X7.5429Y-2.9566
X7.5429Y-3.0466
X7.58Y-4.98
X7.5886Y-6.0409
X7.595Y-4.3936
X7.5971Y-4.0395
X7.6047Y-4.7295
X7.6055Y-4.8055
X7.6071Y-4.8886
X7.6279Y-2.9566
X7.6279Y-3.0466
X7.6554Y-3.8926
X7.663Y-4.8001
X7.663Y-4.8726
X7.663Y-4.9451
X7.6675Y-4.3936
X7.6796Y-5.0485
X7.6927Y-3.673
X7.7Y-3.86
X7.7129Y-2.9566
X7.7129Y-3.0466
X7.738Y-4.8001
X7.738Y-4.8726
X7.738Y-4.9451
X7.74Y-4.3936
X7.7979Y-2.8666
X7.7979Y-2.9566
X7.7979Y-3.0466
X7.7992Y-4.6732
X7.8452Y-5.6981
X7.858Y-2.192
X7.8819Y-4.67
X7.8829Y-2.8666
X7.8829Y-2.9566
X7.8829Y-3.0466
X8.0079Y-3.9252
X8.0079Y-4.0039
X8.0079Y-4.0945
X8.0079Y-4.189
X8.0197Y-4.5591
X8.02Y-4.6063
X8.02Y-4.6614
X8.066Y-2.268
X8.0748Y-3.8543
X8.0748Y-3.9252
X8.0748Y-4.0039
X8.0748Y-4.0945
X8.0748Y-4.189
X8.108Y-2.746
X8.14Y-2.266
X8.1693Y-4.5591
X8.1732Y-4.6063
X8.1732Y-4.6614
X8.19Y-6.04
X8.21Y-2.744
X8.2126Y-3.5236
X8.28Y-2.19
X8.3Y-4.35
X8.33Y-4.32
X8.366Y-4.022
X8.385Y-5.3851
X8.385Y-5.4537
X8.405Y-3.5236
X8.4335Y-3.69
X8.45Y-3.56
X8.4523Y-5.3851
X8.4523Y-5.4537
X8.5197Y-5.3844
X8.5197Y-5.4531
X8.529Y-5.2471
X8.529Y-5.3157
X8.587Y-5.2471
X8.587Y-5.3157
X8.587Y-5.3844
X8.587Y-5.4531
X8.5897Y-1.7447
X8.618Y-1.782
X8.6341Y-2.964
X8.649Y-5.2491
X8.649Y-5.33
X8.649Y-5.4109
X8.7056Y-1.8446
X8.72Y-1.78
X8.733Y-5.2491
X8.733Y-5.33
X8.733Y-5.4109
X8.735Y-4.8251
X8.735Y-4.9051
X8.735Y-5.7848
X8.7558Y-1.7447
X8.7643Y-2.019
X8.79Y-1.78
X8.817Y-5.2491
X8.817Y-5.33
X8.817Y-5.4109
X8.855Y-4.8251
X8.855Y-4.9051
X8.86Y-2.26
X8.9331Y-2.3346
X8.9331Y-2.4055
X8.9331Y-2.4724
X8.9331Y-2.5512
X8.937Y-2.2717
X8.9409Y-2.2047
X8.9752Y-1.9652
X8.9882Y-2.4528
X8.9921Y-2.3583
X9.016Y-2.202
X9.0664Y-5.2488
X9.0674Y-5.13
X9.08Y-2.204
X9.0803Y-2.015
X9.1Y-3.0
X9.109Y-5.189
X9.122Y-1.656
X9.122Y-2.2717
X9.122Y-2.3583
X9.122Y-2.4488
X9.122Y-2.5433
X9.1496Y-5.2489
X9.1506Y-5.1301
X9.1614Y-2.311
X9.1614Y-2.4055
X9.1614Y-2.5
X9.182Y-1.654
X9.1969Y-2.2677
X9.1969Y-2.3543
X9.1969Y-2.4449
X9.2084Y-2.7838
X9.2323Y-2.311
X9.2362Y-2.4016
X9.2402Y-2.5
X9.242Y-1.654
X9.2695Y-2.6307
X9.27Y-3.65
X9.2835Y-2.4449
X9.3193Y-3.0539
X9.39Y-5.435
X9.414Y-1.654
X9.4173Y-2.6142
X9.4537Y-2.7833
X9.475Y-5.435
X9.5151Y-2.5622
X9.5569Y-1.59
X9.5569Y-1.6575
X9.5569Y-1.725
X9.5569Y-1.7925
X9.5569Y-1.86
X9.565Y-5.435
X9.585Y-5.225
X9.585Y-5.3
X9.6343Y-2.7859
X9.645Y-5.225
X9.645Y-5.3
X9.6541Y-1.59
X9.6541Y-1.6575
X9.6541Y-1.725
X9.6541Y-1.7925
X9.6541Y-1.86
T2
X1.047Y-3.1416
X1.047Y-3.2167
X1.047Y-3.2916
X1.0474Y-3.0666
X3.4744Y-3.1472
X3.4744Y-3.2223
X3.4744Y-3.2972
X3.4748Y-3.0722
X5.935Y-3.1374
X5.935Y-3.2124
X5.935Y-3.2874
X5.9354Y-3.0624
X8.69Y-2.8116
X8.765Y-2.812
X8.84Y-2.812
X8.915Y-2.812
T3
X1.365Y-2.1597
X1.365Y-2.455
X1.3957Y-4.5354
X1.3957Y-4.6354
X1.3957Y-4.7354
X1.5512Y-4.5366
X1.5512Y-4.6366
X1.5512Y-4.7366
X2.032Y-3.94
X2.032Y-4.04
X2.032Y-4.14
X2.228Y-3.9406
X2.228Y-4.0406
X2.228Y-4.1406
X2.3654Y-4.761
X2.3654Y-4.861
X2.3654Y-4.961
X2.56Y-4.35
X2.66Y-4.35
X2.76Y-4.35
X2.79Y-5.6044
X2.79Y-5.7044
X2.79Y-5.8044
X2.8001Y-5.0456
X2.86Y-4.35
X2.9393Y-4.9064
X2.96Y-4.35
X2.9694Y-6.02
X3.0694Y-6.02
X3.094Y-3.9118
X3.094Y-4.0118
X3.094Y-4.1118
X3.1504Y-4.4965
X3.1694Y-6.02
X3.2504Y-4.4965
X3.252Y-3.9191
X3.252Y-4.0191
X3.252Y-4.1191
X3.3504Y-4.4965
X3.4484Y-6.0102
X3.4988Y-4.4969
X3.5484Y-6.0102
X3.5988Y-4.4969
X3.6484Y-6.0102
X3.6988Y-4.4969
X3.7484Y-6.0102
X3.7988Y-4.4969
X3.83Y-2.1374
X3.83Y-2.4326
X3.8484Y-6.0102
X3.8988Y-4.4969
X3.9298Y-4.752
X3.9484Y-6.0102
X3.9988Y-4.4969
X4.0298Y-4.752
X4.0484Y-6.0102
X4.1484Y-6.0102
X4.3189Y-5.1457
X4.4189Y-5.1457
X4.5189Y-5.1457
X4.7354Y-5.4911
X4.7354Y-5.5911
X4.8642Y-4.8047
X4.8642Y-4.9047
X4.8642Y-5.0047
X5.0689Y-4.7955
X5.0689Y-4.8955
X6.296Y-2.1358
X6.296Y-2.4311
X7.94Y-5.8158
X7.94Y-5.9158
X8.538Y-5.818
X8.538Y-5.918
T4
X2.5528Y-4.5041
X2.5528Y-4.76
X2.73Y-4.5041
X2.73Y-4.76
T5
X1.3474Y-2.9291
X1.3474Y-3.4291
X1.4474Y-2.9291
X1.4474Y-3.4291
X1.5474Y-2.9291
X1.5474Y-3.4291
X2.61Y-5.98
X2.7891Y-5.98
X3.7748Y-2.9348
X3.7748Y-3.4348
X3.8748Y-2.9348
X3.8748Y-3.4348
X3.9748Y-2.9348
X3.9748Y-3.4348
X6.2354Y-2.9249
X6.2354Y-3.4249
X6.3354Y-2.9249
X6.3354Y-3.4249
X6.4354Y-2.9249
X6.4354Y-3.4249
X8.5525Y-2.3116
X8.5525Y-2.4116
X8.5525Y-2.5116
X9.0525Y-2.3116
X9.0525Y-2.4116
X9.0525Y-2.5116
T6
X2.378Y-1.284
X2.6131Y-3.1988
X4.824Y-1.29
X5.0591Y-3.2048
X7.296Y-1.292
X7.5311Y-3.2068
T7
X4.35Y-6.0
X4.55Y-6.0
X4.84Y-6.0
X5.04Y-6.0
T8
X1.3354Y-3.737
X1.3354Y-3.837
X1.3354Y-3.937
X1.3354Y-4.037
X1.4354Y-3.737
X1.4354Y-3.837
X1.4354Y-3.937
X1.4354Y-4.037
X1.5354Y-3.737
X1.5354Y-3.837
X1.5354Y-3.937
X1.5354Y-4.037
X3.602Y-1.248
X3.602Y-1.348
X3.602Y-1.448
X3.702Y-1.248
X3.702Y-1.348
X3.702Y-1.448
X3.7665Y-3.737
X3.7665Y-3.837
X3.7665Y-3.937
X3.7665Y-4.037
X3.802Y-1.248
X3.802Y-1.348
X3.802Y-1.448
X3.8665Y-3.737
X3.8665Y-3.837
X3.8665Y-3.937
X3.8665Y-4.037
X3.902Y-1.248
X3.902Y-1.348
X3.902Y-1.448
X3.9665Y-3.737
X3.9665Y-3.837
X3.9665Y-3.937
X3.9665Y-4.037
X6.066Y-1.252
X6.066Y-1.352
X6.066Y-1.452
X6.166Y-1.252
X6.166Y-1.352
X6.166Y-1.452
X6.237Y-3.7205
X6.237Y-3.8205
X6.237Y-3.9205
X6.237Y-4.0205
X6.266Y-1.252
X6.266Y-1.352
X6.266Y-1.452
X6.337Y-3.7205
X6.337Y-3.8205
X6.337Y-3.9205
X6.337Y-4.0205
X6.366Y-1.252
X6.366Y-1.352
X6.366Y-1.452
X6.437Y-3.7205
X6.437Y-3.8205
X6.437Y-3.9205
X6.437Y-4.0205
X8.516Y-1.254
X8.516Y-1.354
X8.516Y-1.454
X8.616Y-1.254
X8.616Y-1.354
X8.616Y-1.454
X8.716Y-1.254
X8.716Y-1.354
X8.716Y-1.454
X8.72Y-3.226
X8.72Y-3.326
X8.72Y-3.426
X8.72Y-3.526
X8.7252Y-4.1811
X8.7252Y-4.2811
X8.7252Y-4.3811
X8.7252Y-4.4811
X8.816Y-1.254
X8.816Y-1.354
X8.816Y-1.454
X8.82Y-3.226
X8.82Y-3.326
X8.82Y-3.426
X8.82Y-3.526
X8.8252Y-4.1811
X8.8252Y-4.2811
X8.8252Y-4.3811
X8.8252Y-4.4811
X8.92Y-3.226
X8.92Y-3.326
X8.92Y-3.426
X8.92Y-3.526
X8.9252Y-4.1811
X8.9252Y-4.2811
X8.9252Y-4.3811
X8.9252Y-4.4811
T9
X1.8109Y-2.05
X2.0254Y-2.05
X2.0309Y-2.5011
X2.24Y-2.05
X2.2454Y-2.5011
X2.46Y-2.5011
X2.583Y-2.0507
X2.7975Y-2.0507
X2.7975Y-2.5035
X3.0121Y-2.0507
X3.0121Y-2.5035
X3.2267Y-2.5035
X4.2638Y-2.0469
X4.4783Y-2.0469
X4.4814Y-2.5143
X4.6929Y-2.0469
X4.696Y-2.5143
X4.9106Y-2.5143
X5.045Y-2.0469
X5.2579Y-2.5197
X5.2596Y-2.0469
X5.4724Y-2.5197
X5.4741Y-2.0469
X5.687Y-2.5197
X6.7264Y-2.0366
X6.9409Y-2.0366
X6.9409Y-2.4803
X7.1555Y-2.0366
X7.1555Y-2.4803
X7.3701Y-2.4803
X7.5138Y-2.0366
X7.7264Y-2.4803
X7.7283Y-2.0366
X7.9409Y-2.4803
X7.9429Y-2.0366
X8.1555Y-2.4803
T0
M30
