%TF.GenerationSoftware,KiCad,Pcbnew,7.0.1*%
%TF.CreationDate,2023-11-27T14:14:32+03:00*%
%TF.ProjectId,motordriver,6d6f746f-7264-4726-9976-65722e6b6963,rev?*%
%TF.SameCoordinates,Original*%
%TF.FileFunction,Paste,Top*%
%TF.FilePolarity,Positive*%
%FSLAX46Y46*%
G04 Gerber Fmt 4.6, Leading zero omitted, Abs format (unit mm)*
G04 Created by KiCad (PCBNEW 7.0.1) date 2023-11-27 14:14:32*
%MOMM*%
%LPD*%
G01*
G04 APERTURE LIST*
G04 Aperture macros list*
%AMRoundRect*
0 Rectangle with rounded corners*
0 $1 Rounding radius*
0 $2 $3 $4 $5 $6 $7 $8 $9 X,Y pos of 4 corners*
0 Add a 4 corners polygon primitive as box body*
4,1,4,$2,$3,$4,$5,$6,$7,$8,$9,$2,$3,0*
0 Add four circle primitives for the rounded corners*
1,1,$1+$1,$2,$3*
1,1,$1+$1,$4,$5*
1,1,$1+$1,$6,$7*
1,1,$1+$1,$8,$9*
0 Add four rect primitives between the rounded corners*
20,1,$1+$1,$2,$3,$4,$5,0*
20,1,$1+$1,$4,$5,$6,$7,0*
20,1,$1+$1,$6,$7,$8,$9,0*
20,1,$1+$1,$8,$9,$2,$3,0*%
G04 Aperture macros list end*
%ADD10RoundRect,0.237500X0.250000X0.237500X-0.250000X0.237500X-0.250000X-0.237500X0.250000X-0.237500X0*%
%ADD11RoundRect,0.250000X0.475000X-0.250000X0.475000X0.250000X-0.475000X0.250000X-0.475000X-0.250000X0*%
%ADD12RoundRect,0.249999X1.425001X-0.450001X1.425001X0.450001X-1.425001X0.450001X-1.425001X-0.450001X0*%
%ADD13RoundRect,0.250000X-0.250000X-0.475000X0.250000X-0.475000X0.250000X0.475000X-0.250000X0.475000X0*%
%ADD14RoundRect,0.250000X-1.425000X0.362500X-1.425000X-0.362500X1.425000X-0.362500X1.425000X0.362500X0*%
%ADD15RoundRect,0.237500X0.300000X0.237500X-0.300000X0.237500X-0.300000X-0.237500X0.300000X-0.237500X0*%
%ADD16R,0.600000X1.200000*%
%ADD17RoundRect,0.237500X0.237500X-0.250000X0.237500X0.250000X-0.237500X0.250000X-0.237500X-0.250000X0*%
%ADD18RoundRect,0.237500X0.237500X-0.300000X0.237500X0.300000X-0.237500X0.300000X-0.237500X-0.300000X0*%
%ADD19RoundRect,0.250000X-0.475000X0.250000X-0.475000X-0.250000X0.475000X-0.250000X0.475000X0.250000X0*%
%ADD20RoundRect,0.237500X-0.237500X0.250000X-0.237500X-0.250000X0.237500X-0.250000X0.237500X0.250000X0*%
%ADD21RoundRect,0.225000X0.225000X0.375000X-0.225000X0.375000X-0.225000X-0.375000X0.225000X-0.375000X0*%
%ADD22RoundRect,0.250000X-0.550000X1.500000X-0.550000X-1.500000X0.550000X-1.500000X0.550000X1.500000X0*%
%ADD23R,0.600000X0.850000*%
%ADD24RoundRect,0.250000X-1.450000X0.537500X-1.450000X-0.537500X1.450000X-0.537500X1.450000X0.537500X0*%
%ADD25RoundRect,0.250000X-0.350000X0.850000X-0.350000X-0.850000X0.350000X-0.850000X0.350000X0.850000X0*%
%ADD26RoundRect,0.250000X-1.125000X1.275000X-1.125000X-1.275000X1.125000X-1.275000X1.125000X1.275000X0*%
%ADD27RoundRect,0.237500X-0.250000X-0.237500X0.250000X-0.237500X0.250000X0.237500X-0.250000X0.237500X0*%
%ADD28RoundRect,0.249999X-0.450001X-1.425001X0.450001X-1.425001X0.450001X1.425001X-0.450001X1.425001X0*%
%ADD29RoundRect,0.237500X-0.237500X0.300000X-0.237500X-0.300000X0.237500X-0.300000X0.237500X0.300000X0*%
%ADD30RoundRect,0.250000X-0.167938X0.751301X-0.751301X0.167938X0.167938X-0.751301X0.751301X-0.167938X0*%
%ADD31RoundRect,0.250000X0.412500X0.650000X-0.412500X0.650000X-0.412500X-0.650000X0.412500X-0.650000X0*%
%ADD32RoundRect,0.250000X-0.625000X0.375000X-0.625000X-0.375000X0.625000X-0.375000X0.625000X0.375000X0*%
%ADD33R,0.650000X1.525000*%
%ADD34RoundRect,0.237500X-0.044194X-0.380070X0.380070X0.044194X0.044194X0.380070X-0.380070X-0.044194X0*%
%ADD35RoundRect,0.250000X-0.300000X2.050000X-0.300000X-2.050000X0.300000X-2.050000X0.300000X2.050000X0*%
%ADD36RoundRect,0.250000X-2.375000X2.025000X-2.375000X-2.025000X2.375000X-2.025000X2.375000X2.025000X0*%
%ADD37R,2.200000X5.200000*%
%ADD38RoundRect,0.250000X-1.500000X-1.000000X1.500000X-1.000000X1.500000X1.000000X-1.500000X1.000000X0*%
%ADD39RoundRect,0.237500X-0.300000X-0.237500X0.300000X-0.237500X0.300000X0.237500X-0.300000X0.237500X0*%
%ADD40RoundRect,0.250000X0.250000X0.475000X-0.250000X0.475000X-0.250000X-0.475000X0.250000X-0.475000X0*%
%ADD41RoundRect,0.225000X-0.225000X-0.375000X0.225000X-0.375000X0.225000X0.375000X-0.225000X0.375000X0*%
%ADD42RoundRect,0.250000X0.625000X-0.400000X0.625000X0.400000X-0.625000X0.400000X-0.625000X-0.400000X0*%
%ADD43RoundRect,0.237500X-0.008839X-0.344715X0.344715X0.008839X0.008839X0.344715X-0.344715X-0.008839X0*%
%ADD44RoundRect,0.250000X-0.650000X0.412500X-0.650000X-0.412500X0.650000X-0.412500X0.650000X0.412500X0*%
%ADD45R,1.200000X0.600000*%
%ADD46RoundRect,0.250000X-0.625000X0.400000X-0.625000X-0.400000X0.625000X-0.400000X0.625000X0.400000X0*%
%ADD47R,0.850000X0.600000*%
%ADD48R,2.300000X4.000000*%
%ADD49R,2.300000X4.400000*%
%ADD50RoundRect,0.250000X0.000000X0.424264X-0.424264X0.000000X0.000000X-0.424264X0.424264X0.000000X0*%
%ADD51RoundRect,0.062500X0.220971X0.309359X-0.309359X-0.220971X-0.220971X-0.309359X0.309359X0.220971X0*%
%ADD52RoundRect,0.062500X-0.220971X0.309359X-0.309359X0.220971X0.220971X-0.309359X0.309359X-0.220971X0*%
%ADD53RoundRect,0.237500X0.344715X-0.008839X-0.008839X0.344715X-0.344715X0.008839X0.008839X-0.344715X0*%
%ADD54R,2.900000X5.400000*%
%ADD55RoundRect,0.150000X-0.150000X0.587500X-0.150000X-0.587500X0.150000X-0.587500X0.150000X0.587500X0*%
%ADD56R,0.900000X1.350000*%
%ADD57RoundRect,0.250000X0.375000X0.625000X-0.375000X0.625000X-0.375000X-0.625000X0.375000X-0.625000X0*%
%ADD58RoundRect,0.237500X0.044194X0.380070X-0.380070X-0.044194X-0.044194X-0.380070X0.380070X0.044194X0*%
%ADD59RoundRect,0.075000X-0.521491X0.415425X0.415425X-0.521491X0.521491X-0.415425X-0.415425X0.521491X0*%
%ADD60RoundRect,0.075000X-0.521491X-0.415425X-0.415425X-0.521491X0.521491X0.415425X0.415425X0.521491X0*%
%ADD61RoundRect,0.150000X-0.825000X-0.150000X0.825000X-0.150000X0.825000X0.150000X-0.825000X0.150000X0*%
%ADD62RoundRect,0.150000X-0.150000X0.725000X-0.150000X-0.725000X0.150000X-0.725000X0.150000X0.725000X0*%
%ADD63RoundRect,0.250000X0.900000X-1.000000X0.900000X1.000000X-0.900000X1.000000X-0.900000X-1.000000X0*%
%ADD64RoundRect,0.237500X0.380070X-0.044194X-0.044194X0.380070X-0.380070X0.044194X0.044194X-0.380070X0*%
%ADD65RoundRect,0.250000X0.650000X-0.412500X0.650000X0.412500X-0.650000X0.412500X-0.650000X-0.412500X0*%
%ADD66RoundRect,0.250000X-0.350000X-0.450000X0.350000X-0.450000X0.350000X0.450000X-0.350000X0.450000X0*%
%ADD67RoundRect,0.250000X-0.900000X1.000000X-0.900000X-1.000000X0.900000X-1.000000X0.900000X1.000000X0*%
%ADD68RoundRect,0.100000X-0.100000X0.637500X-0.100000X-0.637500X0.100000X-0.637500X0.100000X0.637500X0*%
%ADD69RoundRect,0.250000X1.000000X-1.500000X1.000000X1.500000X-1.000000X1.500000X-1.000000X-1.500000X0*%
%ADD70RoundRect,0.250000X0.512652X0.159099X0.159099X0.512652X-0.512652X-0.159099X-0.159099X-0.512652X0*%
%ADD71R,0.450000X0.700000*%
%ADD72R,1.450000X0.450000*%
%ADD73R,3.150000X4.350000*%
G04 APERTURE END LIST*
D10*
%TO.C,R9*%
X151788500Y-147828000D03*
X149963500Y-147828000D03*
%TD*%
D11*
%TO.C,C94*%
X117983000Y-130236000D03*
X117983000Y-128336000D03*
%TD*%
D12*
%TO.C,R149*%
X211175600Y-50038000D03*
X211175600Y-43938000D03*
%TD*%
D13*
%TO.C,C26*%
X53914000Y-122174000D03*
X55814000Y-122174000D03*
%TD*%
D14*
%TO.C,R42*%
X129032000Y-67818000D03*
X129032000Y-73743000D03*
%TD*%
D15*
%TO.C,C18*%
X210869700Y-102158800D03*
X209144700Y-102158800D03*
%TD*%
D16*
%TO.C,OPA5*%
X210804800Y-97606800D03*
X209854800Y-97606800D03*
X208904800Y-97606800D03*
X208904800Y-100106800D03*
X210804800Y-100106800D03*
%TD*%
D17*
%TO.C,R47*%
X79756000Y-123848500D03*
X79756000Y-122023500D03*
%TD*%
D18*
%TO.C,C112*%
X243382800Y-72490500D03*
X243382800Y-70765500D03*
%TD*%
D17*
%TO.C,R70*%
X179628800Y-93573600D03*
X179628800Y-91748600D03*
%TD*%
D19*
%TO.C,C99*%
X53187600Y-57520800D03*
X53187600Y-59420800D03*
%TD*%
D20*
%TO.C,R88*%
X197322400Y-144754200D03*
X197322400Y-146579200D03*
%TD*%
D15*
%TO.C,C14*%
X162152500Y-126492000D03*
X160427500Y-126492000D03*
%TD*%
D21*
%TO.C,D15*%
X120318800Y-55930800D03*
X117018800Y-55930800D03*
%TD*%
D10*
%TO.C,R141*%
X69086100Y-58318400D03*
X67261100Y-58318400D03*
%TD*%
D17*
%TO.C,R56*%
X80518000Y-111412500D03*
X80518000Y-109587500D03*
%TD*%
D22*
%TO.C,C16*%
X144399000Y-129915000D03*
X144399000Y-135515000D03*
%TD*%
D23*
%TO.C,Z2*%
X57489300Y-91561600D03*
X55589300Y-91561600D03*
X56539300Y-94061600D03*
%TD*%
D10*
%TO.C,R4*%
X235938700Y-125350816D03*
X234113700Y-125350816D03*
%TD*%
D18*
%TO.C,C77*%
X127762000Y-147166500D03*
X127762000Y-145441500D03*
%TD*%
D17*
%TO.C,R152*%
X81838800Y-57554500D03*
X81838800Y-55729500D03*
%TD*%
D24*
%TO.C,C61*%
X228142800Y-95601700D03*
X228142800Y-99876700D03*
%TD*%
D20*
%TO.C,R30*%
X103860000Y-108067500D03*
X103860000Y-109892500D03*
%TD*%
D15*
%TO.C,C52*%
X191108500Y-126492000D03*
X189383500Y-126492000D03*
%TD*%
D25*
%TO.C,D8*%
X224098200Y-129080817D03*
D26*
X223343200Y-133705817D03*
X220293200Y-133705817D03*
X223343200Y-137055817D03*
X220293200Y-137055817D03*
D25*
X219538200Y-129080817D03*
%TD*%
D17*
%TO.C,R48*%
X122428000Y-92706200D03*
X122428000Y-90881200D03*
%TD*%
D14*
%TO.C,R32*%
X195961000Y-67437000D03*
X195961000Y-73362000D03*
%TD*%
D23*
%TO.C,Z5*%
X70546000Y-94528000D03*
X68646000Y-94528000D03*
X69596000Y-97028000D03*
%TD*%
D17*
%TO.C,R117*%
X95758000Y-123952000D03*
X95758000Y-122127000D03*
%TD*%
D27*
%TO.C,R12*%
X208942300Y-93522800D03*
X210767300Y-93522800D03*
%TD*%
D11*
%TO.C,C27*%
X58547000Y-141292000D03*
X58547000Y-139392000D03*
%TD*%
D28*
%TO.C,R7*%
X217244200Y-123572816D03*
X223344200Y-123572816D03*
%TD*%
D10*
%TO.C,R64*%
X191817000Y-97282000D03*
X189992000Y-97282000D03*
%TD*%
%TO.C,R61*%
X138453500Y-97282000D03*
X136628500Y-97282000D03*
%TD*%
%TO.C,R52*%
X96882500Y-127000000D03*
X95057500Y-127000000D03*
%TD*%
%TO.C,R125*%
X114196500Y-146812000D03*
X112371500Y-146812000D03*
%TD*%
D17*
%TO.C,R151*%
X111506000Y-136548500D03*
X111506000Y-134723500D03*
%TD*%
%TO.C,R124*%
X62331600Y-57503700D03*
X62331600Y-55678700D03*
%TD*%
D29*
%TO.C,C74*%
X194411600Y-100381900D03*
X194411600Y-102106900D03*
%TD*%
D10*
%TO.C,R143*%
X131519300Y-58928000D03*
X129694300Y-58928000D03*
%TD*%
D28*
%TO.C,R96*%
X50450000Y-68580000D03*
X56550000Y-68580000D03*
%TD*%
D17*
%TO.C,R53*%
X59600000Y-113312500D03*
X59600000Y-111487500D03*
%TD*%
D13*
%TO.C,C50*%
X86426000Y-90373200D03*
X88326000Y-90373200D03*
%TD*%
D30*
%TO.C,C81*%
X131660854Y-104152746D03*
X129451146Y-106362454D03*
%TD*%
D19*
%TO.C,C10*%
X217246200Y-126346416D03*
X217246200Y-128246416D03*
%TD*%
D14*
%TO.C,R34*%
X66936000Y-67564000D03*
X66936000Y-73489000D03*
%TD*%
D20*
%TO.C,R153*%
X70764400Y-57507500D03*
X70764400Y-59332500D03*
%TD*%
D29*
%TO.C,C64*%
X69291200Y-100585100D03*
X69291200Y-102310100D03*
%TD*%
D31*
%TO.C,C49*%
X208978900Y-52679600D03*
X205853900Y-52679600D03*
%TD*%
D32*
%TO.C,D2*%
X221869000Y-148330001D03*
X221869000Y-151130001D03*
%TD*%
D33*
%TO.C,IC3*%
X104648000Y-142912000D03*
X103378000Y-142912000D03*
X102108000Y-142912000D03*
X100838000Y-142912000D03*
X99568000Y-142912000D03*
X98298000Y-142912000D03*
X97028000Y-142912000D03*
X95758000Y-142912000D03*
X95758000Y-148336000D03*
X97028000Y-148336000D03*
X98298000Y-148336000D03*
X99568000Y-148336000D03*
X100838000Y-148336000D03*
X102108000Y-148336000D03*
X103378000Y-148336000D03*
X104648000Y-148336000D03*
%TD*%
D11*
%TO.C,C110*%
X185420000Y-57134800D03*
X185420000Y-55234800D03*
%TD*%
D27*
%TO.C,R133*%
X130387500Y-128470000D03*
X132212500Y-128470000D03*
%TD*%
D33*
%TO.C,IC4*%
X115189000Y-139020000D03*
X113919000Y-139020000D03*
X112649000Y-139020000D03*
X111379000Y-139020000D03*
X111379000Y-144444000D03*
X112649000Y-144444000D03*
X113919000Y-144444000D03*
X115189000Y-144444000D03*
%TD*%
D20*
%TO.C,R63*%
X186333908Y-98938838D03*
X186333908Y-100763838D03*
%TD*%
D34*
%TO.C,C29*%
X89560120Y-132181880D03*
X90779880Y-130962120D03*
%TD*%
D27*
%TO.C,R45*%
X192229100Y-57861200D03*
X194054100Y-57861200D03*
%TD*%
D17*
%TO.C,R119*%
X92202000Y-123952000D03*
X92202000Y-122127000D03*
%TD*%
D35*
%TO.C,U5*%
X186553000Y-130943000D03*
X184853000Y-130943000D03*
X183153000Y-130943000D03*
D36*
X185928000Y-137668000D03*
X180378000Y-137668000D03*
X185928000Y-142518000D03*
X180378000Y-142518000D03*
D35*
X181453000Y-130943000D03*
X179753000Y-130943000D03*
%TD*%
D37*
%TO.C,D6*%
X184587000Y-122301000D03*
X191587000Y-122301000D03*
%TD*%
D19*
%TO.C,C43*%
X137871200Y-69001600D03*
X137871200Y-70901600D03*
%TD*%
%TO.C,C108*%
X178155600Y-57012800D03*
X178155600Y-58912800D03*
%TD*%
D38*
%TO.C,C13*%
X159489000Y-113919000D03*
X165989000Y-113919000D03*
%TD*%
D39*
%TO.C,C22*%
X106833500Y-114808000D03*
X108558500Y-114808000D03*
%TD*%
D40*
%TO.C,R2*%
X235280200Y-141098816D03*
X233380200Y-141098816D03*
%TD*%
D29*
%TO.C,C62*%
X83312000Y-119025500D03*
X83312000Y-120750500D03*
%TD*%
D20*
%TO.C,R87*%
X118045000Y-132461000D03*
X118045000Y-134286000D03*
%TD*%
D41*
%TO.C,D9*%
X55246000Y-146438000D03*
X58546000Y-146438000D03*
%TD*%
D29*
%TO.C,L7*%
X167386000Y-129947500D03*
X167386000Y-131672500D03*
%TD*%
D11*
%TO.C,C109*%
X204851000Y-57658000D03*
X204851000Y-55758000D03*
%TD*%
%TO.C,C102*%
X79908400Y-57592000D03*
X79908400Y-55692000D03*
%TD*%
D17*
%TO.C,R123*%
X124206000Y-57402100D03*
X124206000Y-55577100D03*
%TD*%
D21*
%TO.C,D22*%
X183387000Y-55626000D03*
X180087000Y-55626000D03*
%TD*%
D19*
%TO.C,C103*%
X115163600Y-57825600D03*
X115163600Y-59725600D03*
%TD*%
D11*
%TO.C,C101*%
X60452000Y-57526000D03*
X60452000Y-55626000D03*
%TD*%
D15*
%TO.C,C59*%
X236792500Y-70700000D03*
X235067500Y-70700000D03*
%TD*%
D17*
%TO.C,R40*%
X53691700Y-93774900D03*
X53691700Y-91949900D03*
%TD*%
D10*
%TO.C,R38*%
X127658500Y-56489600D03*
X125833500Y-56489600D03*
%TD*%
D41*
%TO.C,D12*%
X55144400Y-59131200D03*
X58444400Y-59131200D03*
%TD*%
%TO.C,D25*%
X199518000Y-58572400D03*
X202818000Y-58572400D03*
%TD*%
D40*
%TO.C,C4*%
X235280200Y-139066816D03*
X233380200Y-139066816D03*
%TD*%
D42*
%TO.C,R91*%
X208026000Y-152019600D03*
X208026000Y-148919600D03*
%TD*%
%TO.C,R146*%
X221284800Y-99543200D03*
X221284800Y-96443200D03*
%TD*%
D34*
%TO.C,C68*%
X69090120Y-126409880D03*
X70309880Y-125190120D03*
%TD*%
D17*
%TO.C,R159*%
X206806800Y-57605300D03*
X206806800Y-55780300D03*
%TD*%
D43*
%TO.C,R16*%
X112654765Y-111445235D03*
X113945235Y-110154765D03*
%TD*%
D12*
%TO.C,R95*%
X82042000Y-49836800D03*
X82042000Y-43736800D03*
%TD*%
D10*
%TO.C,R49*%
X67056000Y-97028000D03*
X65231000Y-97028000D03*
%TD*%
D17*
%TO.C,R54*%
X78800000Y-111412500D03*
X78800000Y-109587500D03*
%TD*%
D44*
%TO.C,C1*%
X242011200Y-133567316D03*
X242011200Y-136692316D03*
%TD*%
D27*
%TO.C,R5*%
X233859700Y-122048816D03*
X235684700Y-122048816D03*
%TD*%
D44*
%TO.C,C34*%
X87376000Y-56730500D03*
X87376000Y-59855500D03*
%TD*%
D20*
%TO.C,R90*%
X212293200Y-144731100D03*
X212293200Y-146556100D03*
%TD*%
D45*
%TO.C,OPA1*%
X65044000Y-98872000D03*
X65044000Y-99822000D03*
X65044000Y-100772000D03*
X67544000Y-100772000D03*
X67544000Y-98872000D03*
%TD*%
D15*
%TO.C,C63*%
X61362500Y-115000000D03*
X59637500Y-115000000D03*
%TD*%
D12*
%TO.C,R147*%
X86410800Y-49836800D03*
X86410800Y-43736800D03*
%TD*%
D41*
%TO.C,D19*%
X180112400Y-58572400D03*
X183412400Y-58572400D03*
%TD*%
D14*
%TO.C,R17*%
X187198000Y-67437000D03*
X187198000Y-73362000D03*
%TD*%
D28*
%TO.C,R100*%
X174877000Y-67818000D03*
X180977000Y-67818000D03*
%TD*%
D27*
%TO.C,R69*%
X118975500Y-92710000D03*
X120800500Y-92710000D03*
%TD*%
D23*
%TO.C,Z4*%
X183466500Y-91626300D03*
X181566500Y-91626300D03*
X182516500Y-94126300D03*
%TD*%
D19*
%TO.C,C100*%
X72694800Y-57470000D03*
X72694800Y-59370000D03*
%TD*%
D37*
%TO.C,D4*%
X155829000Y-122428000D03*
X162829000Y-122428000D03*
%TD*%
D46*
%TO.C,R58*%
X55753000Y-138030000D03*
X55753000Y-141130000D03*
%TD*%
D31*
%TO.C,C42*%
X84062500Y-52425600D03*
X80937500Y-52425600D03*
%TD*%
D38*
%TO.C,C35*%
X188214000Y-113538000D03*
X194714000Y-113538000D03*
%TD*%
D30*
%TO.C,C80*%
X129933654Y-102425546D03*
X127723946Y-104635254D03*
%TD*%
D47*
%TO.C,Z9*%
X241666400Y-65923200D03*
X241666400Y-64023200D03*
X239166400Y-64973200D03*
%TD*%
D44*
%TO.C,C117*%
X150114000Y-56349500D03*
X150114000Y-59474500D03*
%TD*%
D10*
%TO.C,R130*%
X142847700Y-70815200D03*
X141022700Y-70815200D03*
%TD*%
D17*
%TO.C,R62*%
X188033908Y-100763838D03*
X188033908Y-98938838D03*
%TD*%
D13*
%TO.C,C8*%
X228422200Y-127125817D03*
X230322200Y-127125817D03*
%TD*%
D48*
%TO.C,IC5*%
X46609000Y-151219000D03*
D49*
X46609000Y-135219000D03*
%TD*%
D16*
%TO.C,OPA4*%
X241092400Y-71902000D03*
X240142400Y-71902000D03*
X239192400Y-71902000D03*
X239192400Y-74402000D03*
X241092400Y-74402000D03*
%TD*%
D15*
%TO.C,C69*%
X67006000Y-95504000D03*
X65281000Y-95504000D03*
%TD*%
D50*
%TO.C,U4*%
X122380737Y-108617473D03*
X121412000Y-107648737D03*
X120443264Y-106680000D03*
X121412000Y-109586209D03*
X120443264Y-108617473D03*
X119474528Y-107648737D03*
X120443264Y-110554946D03*
X119474528Y-109586209D03*
X118505791Y-108617473D03*
D51*
X124818487Y-108131337D03*
X124464934Y-107777784D03*
X124111380Y-107424230D03*
X123757827Y-107070677D03*
X123404274Y-106717124D03*
X123050720Y-106363570D03*
X122697167Y-106010017D03*
X122343613Y-105656463D03*
X121990060Y-105302910D03*
X121636507Y-104949357D03*
X121282953Y-104595803D03*
X120929400Y-104242250D03*
D52*
X119957128Y-104242250D03*
X119603575Y-104595803D03*
X119250021Y-104949357D03*
X118896468Y-105302910D03*
X118542915Y-105656463D03*
X118189361Y-106010017D03*
X117835808Y-106363570D03*
X117482254Y-106717124D03*
X117128701Y-107070677D03*
X116775148Y-107424230D03*
X116421594Y-107777784D03*
X116068041Y-108131337D03*
D51*
X116068041Y-109103609D03*
X116421594Y-109457162D03*
X116775148Y-109810716D03*
X117128701Y-110164269D03*
X117482254Y-110517822D03*
X117835808Y-110871376D03*
X118189361Y-111224929D03*
X118542915Y-111578483D03*
X118896468Y-111932036D03*
X119250021Y-112285589D03*
X119603575Y-112639143D03*
X119957128Y-112992696D03*
D52*
X120929400Y-112992696D03*
X121282953Y-112639143D03*
X121636507Y-112285589D03*
X121990060Y-111932036D03*
X122343613Y-111578483D03*
X122697167Y-111224929D03*
X123050720Y-110871376D03*
X123404274Y-110517822D03*
X123757827Y-110164269D03*
X124111380Y-109810716D03*
X124464934Y-109457162D03*
X124818487Y-109103609D03*
%TD*%
D53*
%TO.C,R127*%
X82992035Y-68717235D03*
X81701565Y-67426765D03*
%TD*%
D11*
%TO.C,C106*%
X142367000Y-57541200D03*
X142367000Y-55641200D03*
%TD*%
D15*
%TO.C,C75*%
X191773491Y-95747805D03*
X190048491Y-95747805D03*
%TD*%
D17*
%TO.C,R118*%
X93980000Y-123952000D03*
X93980000Y-122127000D03*
%TD*%
D27*
%TO.C,R142*%
X145950300Y-56489600D03*
X147775300Y-56489600D03*
%TD*%
D12*
%TO.C,R97*%
X149047200Y-49987200D03*
X149047200Y-43887200D03*
%TD*%
D54*
%TO.C,L4*%
X180975000Y-120777000D03*
X171075000Y-120777000D03*
%TD*%
D20*
%TO.C,R60*%
X132608000Y-98721500D03*
X132608000Y-100546500D03*
%TD*%
D47*
%TO.C,Z8*%
X208534438Y-105277388D03*
X208534438Y-107177388D03*
X211034438Y-106227388D03*
%TD*%
D41*
%TO.C,D13*%
X74600800Y-59182000D03*
X77900800Y-59182000D03*
%TD*%
D10*
%TO.C,R13*%
X210767300Y-95300800D03*
X208942300Y-95300800D03*
%TD*%
D11*
%TO.C,C6*%
X240233200Y-130110816D03*
X240233200Y-128210816D03*
%TD*%
D55*
%TO.C,Q17*%
X212278000Y-149024100D03*
X210378000Y-149024100D03*
X211328000Y-150899100D03*
%TD*%
D27*
%TO.C,R39*%
X109780700Y-58623200D03*
X111605700Y-58623200D03*
%TD*%
D44*
%TO.C,C98*%
X25146000Y-56476500D03*
X25146000Y-59601500D03*
%TD*%
D39*
%TO.C,C65*%
X65431500Y-102616000D03*
X67156500Y-102616000D03*
%TD*%
D29*
%TO.C,C88*%
X75438000Y-147727500D03*
X75438000Y-149452500D03*
%TD*%
D56*
%TO.C,FL1*%
X126420000Y-137850000D03*
X123920000Y-137850000D03*
X123920000Y-142400000D03*
X126420000Y-142400000D03*
%TD*%
D57*
%TO.C,D3*%
X156848000Y-147828000D03*
X154048000Y-147828000D03*
%TD*%
D17*
%TO.C,R23*%
X95758000Y-118768500D03*
X95758000Y-116943500D03*
%TD*%
D57*
%TO.C,D7*%
X187886800Y-147523200D03*
X185086800Y-147523200D03*
%TD*%
D17*
%TO.C,R59*%
X134400000Y-100546500D03*
X134400000Y-98721500D03*
%TD*%
D12*
%TO.C,R99*%
X206857600Y-50088800D03*
X206857600Y-43988800D03*
%TD*%
D22*
%TO.C,C54*%
X173355000Y-129915000D03*
X173355000Y-135515000D03*
%TD*%
D20*
%TO.C,R66*%
X236829600Y-72696700D03*
X236829600Y-74521700D03*
%TD*%
D39*
%TO.C,C121*%
X239229100Y-67818000D03*
X240954100Y-67818000D03*
%TD*%
D20*
%TO.C,R126*%
X51206400Y-57609100D03*
X51206400Y-59434100D03*
%TD*%
D10*
%TO.C,R73*%
X44212500Y-110100000D03*
X42387500Y-110100000D03*
%TD*%
D17*
%TO.C,R14*%
X81534000Y-123848500D03*
X81534000Y-122023500D03*
%TD*%
D58*
%TO.C,C67*%
X72709880Y-122790120D03*
X71490120Y-124009880D03*
%TD*%
D43*
%TO.C,R19*%
X111554765Y-110345235D03*
X112845235Y-109054765D03*
%TD*%
D13*
%TO.C,C89*%
X99380000Y-117348000D03*
X101280000Y-117348000D03*
%TD*%
D59*
%TO.C,U6*%
X82059212Y-127192124D03*
X81705658Y-127545678D03*
X81352105Y-127899231D03*
X80998551Y-128252785D03*
X80644998Y-128606338D03*
X80291445Y-128959891D03*
X79937891Y-129313445D03*
X79584338Y-129666998D03*
X79230785Y-130020551D03*
X78877231Y-130374105D03*
X78523678Y-130727658D03*
X78170124Y-131081212D03*
D60*
X78170124Y-133078788D03*
X78523678Y-133432342D03*
X78877231Y-133785895D03*
X79230785Y-134139449D03*
X79584338Y-134493002D03*
X79937891Y-134846555D03*
X80291445Y-135200109D03*
X80644998Y-135553662D03*
X80998551Y-135907215D03*
X81352105Y-136260769D03*
X81705658Y-136614322D03*
X82059212Y-136967876D03*
D59*
X84056788Y-136967876D03*
X84410342Y-136614322D03*
X84763895Y-136260769D03*
X85117449Y-135907215D03*
X85471002Y-135553662D03*
X85824555Y-135200109D03*
X86178109Y-134846555D03*
X86531662Y-134493002D03*
X86885215Y-134139449D03*
X87238769Y-133785895D03*
X87592322Y-133432342D03*
X87945876Y-133078788D03*
D60*
X87945876Y-131081212D03*
X87592322Y-130727658D03*
X87238769Y-130374105D03*
X86885215Y-130020551D03*
X86531662Y-129666998D03*
X86178109Y-129313445D03*
X85824555Y-128959891D03*
X85471002Y-128606338D03*
X85117449Y-128252785D03*
X84763895Y-127899231D03*
X84410342Y-127545678D03*
X84056788Y-127192124D03*
%TD*%
D17*
%TO.C,R55*%
X72644000Y-115012500D03*
X72644000Y-113187500D03*
%TD*%
D54*
%TO.C,L1*%
X214249000Y-132412016D03*
X204349000Y-132412016D03*
%TD*%
D27*
%TO.C,R71*%
X175965200Y-93536700D03*
X177790200Y-93536700D03*
%TD*%
D61*
%TO.C,U3*%
X123001000Y-130429000D03*
X123001000Y-131699000D03*
X123001000Y-132969000D03*
X123001000Y-134239000D03*
X127951000Y-134239000D03*
X127951000Y-132969000D03*
X127951000Y-131699000D03*
X127951000Y-130429000D03*
%TD*%
D13*
%TO.C,C41*%
X24754800Y-90373200D03*
X26654800Y-90373200D03*
%TD*%
D53*
%TO.C,R131*%
X207111600Y-67919600D03*
X205821130Y-66629130D03*
%TD*%
D62*
%TO.C,U2*%
X51689000Y-114519000D03*
X50419000Y-114519000D03*
X49149000Y-114519000D03*
X47879000Y-114519000D03*
X46609000Y-114519000D03*
X45339000Y-114519000D03*
X44069000Y-114519000D03*
X42799000Y-114519000D03*
X42799000Y-119669000D03*
X44069000Y-119669000D03*
X45339000Y-119669000D03*
X46609000Y-119669000D03*
X47879000Y-119669000D03*
X49149000Y-119669000D03*
X50419000Y-119669000D03*
X51689000Y-119669000D03*
%TD*%
D17*
%TO.C,R157*%
X187299600Y-57046500D03*
X187299600Y-55221500D03*
%TD*%
D18*
%TO.C,C53*%
X168910000Y-131672500D03*
X168910000Y-129947500D03*
%TD*%
D63*
%TO.C,D23*%
X237388400Y-58944400D03*
X237388400Y-54644400D03*
%TD*%
D29*
%TO.C,C17*%
X206806800Y-97994300D03*
X206806800Y-99719300D03*
%TD*%
D20*
%TO.C,R154*%
X113233200Y-57812300D03*
X113233200Y-59637300D03*
%TD*%
D39*
%TO.C,C20*%
X106857500Y-109600000D03*
X108582500Y-109600000D03*
%TD*%
D27*
%TO.C,R33*%
X47703100Y-58369200D03*
X49528100Y-58369200D03*
%TD*%
D17*
%TO.C,R3*%
X242133200Y-130055523D03*
X242133200Y-128230523D03*
%TD*%
D29*
%TO.C,L2*%
X138303000Y-130201500D03*
X138303000Y-131926500D03*
%TD*%
D15*
%TO.C,C72*%
X138406500Y-95758000D03*
X136681500Y-95758000D03*
%TD*%
D27*
%TO.C,R140*%
X83417400Y-56642000D03*
X85242400Y-56642000D03*
%TD*%
D14*
%TO.C,R36*%
X71120000Y-67564000D03*
X71120000Y-73489000D03*
%TD*%
D19*
%TO.C,C11*%
X200177400Y-120082816D03*
X200177400Y-121982816D03*
%TD*%
D20*
%TO.C,R67*%
X236789600Y-66854700D03*
X236789600Y-68679700D03*
%TD*%
%TO.C,R158*%
X195681600Y-56948700D03*
X195681600Y-58773700D03*
%TD*%
D28*
%TO.C,R98*%
X112139000Y-68834000D03*
X118239000Y-68834000D03*
%TD*%
D17*
%TO.C,R150*%
X115062000Y-136548500D03*
X115062000Y-134723500D03*
%TD*%
D19*
%TO.C,C47*%
X200304400Y-67833200D03*
X200304400Y-69733200D03*
%TD*%
D58*
%TO.C,C30*%
X80772000Y-139192000D03*
X79552240Y-140411760D03*
%TD*%
D43*
%TO.C,R29*%
X110509530Y-109190470D03*
X111800000Y-107900000D03*
%TD*%
D21*
%TO.C,D11*%
X58419000Y-55981600D03*
X55119000Y-55981600D03*
%TD*%
D19*
%TO.C,C78*%
X117348000Y-144465000D03*
X117348000Y-146365000D03*
%TD*%
D31*
%TO.C,C3*%
X234302700Y-136653816D03*
X231177700Y-136653816D03*
%TD*%
D17*
%TO.C,R120*%
X102108000Y-140208000D03*
X102108000Y-138383000D03*
%TD*%
D10*
%TO.C,R10*%
X210767300Y-91744800D03*
X208942300Y-91744800D03*
%TD*%
D17*
%TO.C,R155*%
X144272000Y-57503700D03*
X144272000Y-55678700D03*
%TD*%
D20*
%TO.C,R86*%
X120077000Y-132461000D03*
X120077000Y-134286000D03*
%TD*%
D23*
%TO.C,Z1*%
X137861000Y-136104000D03*
X139761000Y-136104000D03*
X138811000Y-133604000D03*
%TD*%
D58*
%TO.C,C28*%
X78841880Y-137312120D03*
X77622120Y-138531880D03*
%TD*%
D21*
%TO.C,D14*%
X77850000Y-55981600D03*
X74550000Y-55981600D03*
%TD*%
D10*
%TO.C,R18*%
X65885700Y-56591200D03*
X64060700Y-56591200D03*
%TD*%
D64*
%TO.C,C31*%
X84709880Y-125009880D03*
X83490120Y-123790120D03*
%TD*%
D11*
%TO.C,C46*%
X128016000Y-111694000D03*
X128016000Y-109794000D03*
%TD*%
D15*
%TO.C,L3*%
X200074700Y-124207816D03*
X198349700Y-124207816D03*
%TD*%
D23*
%TO.C,Z10*%
X196484200Y-128231815D03*
X198384200Y-128231815D03*
X197434200Y-125731815D03*
%TD*%
D44*
%TO.C,C23*%
X131572000Y-108419500D03*
X131572000Y-111544500D03*
%TD*%
D65*
%TO.C,C111*%
X46736000Y-64554500D03*
X46736000Y-61429500D03*
%TD*%
D10*
%TO.C,R44*%
X190752100Y-56184800D03*
X188927100Y-56184800D03*
%TD*%
D31*
%TO.C,C45*%
X146596500Y-52730400D03*
X143471500Y-52730400D03*
%TD*%
D11*
%TO.C,C105*%
X122275600Y-57439600D03*
X122275600Y-55539600D03*
%TD*%
D18*
%TO.C,C15*%
X139954000Y-131926500D03*
X139954000Y-130201500D03*
%TD*%
D21*
%TO.C,D17*%
X140486400Y-55880000D03*
X137186400Y-55880000D03*
%TD*%
D17*
%TO.C,R8*%
X219837000Y-151280500D03*
X219837000Y-149455500D03*
%TD*%
D27*
%TO.C,R101*%
X239228000Y-69646800D03*
X241053000Y-69646800D03*
%TD*%
D19*
%TO.C,C107*%
X197612000Y-56962000D03*
X197612000Y-58862000D03*
%TD*%
D14*
%TO.C,R35*%
X62484000Y-67437000D03*
X62484000Y-73362000D03*
%TD*%
D66*
%TO.C,FB1*%
X98900000Y-123900000D03*
X100900000Y-123900000D03*
%TD*%
D17*
%TO.C,R57*%
X75184000Y-115012500D03*
X75184000Y-113187500D03*
%TD*%
D10*
%TO.C,R144*%
X174597700Y-57962800D03*
X172772700Y-57962800D03*
%TD*%
D20*
%TO.C,R156*%
X133197600Y-58066300D03*
X133197600Y-59891300D03*
%TD*%
D40*
%TO.C,C5*%
X242133200Y-126476023D03*
X240233200Y-126476023D03*
%TD*%
D67*
%TO.C,D21*%
X237337600Y-42096800D03*
X237337600Y-46396800D03*
%TD*%
D12*
%TO.C,R148*%
X144526000Y-50038000D03*
X144526000Y-43938000D03*
%TD*%
D40*
%TO.C,C9*%
X228356200Y-136523817D03*
X226456200Y-136523817D03*
%TD*%
D30*
%TO.C,C37*%
X128104854Y-100695146D03*
X125895146Y-102904854D03*
%TD*%
D39*
%TO.C,C70*%
X137079500Y-102682000D03*
X138804500Y-102682000D03*
%TD*%
D27*
%TO.C,R46*%
X50029200Y-93506800D03*
X51854200Y-93506800D03*
%TD*%
D19*
%TO.C,C104*%
X135077200Y-58028800D03*
X135077200Y-59928800D03*
%TD*%
D31*
%TO.C,C83*%
X131102500Y-113792000D03*
X127977500Y-113792000D03*
%TD*%
D54*
%TO.C,L6*%
X151892000Y-120904000D03*
X141992000Y-120904000D03*
%TD*%
D21*
%TO.C,D20*%
X202868800Y-55676800D03*
X199568800Y-55676800D03*
%TD*%
D13*
%TO.C,C119*%
X220792000Y-75285600D03*
X222692000Y-75285600D03*
%TD*%
D10*
%TO.C,R37*%
X182472500Y-147680000D03*
X180647500Y-147680000D03*
%TD*%
D45*
%TO.C,OPA3*%
X190012000Y-98872000D03*
X190012000Y-99822000D03*
X190012000Y-100772000D03*
X192512000Y-100772000D03*
X192512000Y-98872000D03*
%TD*%
D39*
%TO.C,C21*%
X106847500Y-112500000D03*
X108572500Y-112500000D03*
%TD*%
D65*
%TO.C,C48*%
X109093000Y-64808500D03*
X109093000Y-61683500D03*
%TD*%
D21*
%TO.C,D10*%
X58546000Y-143771000D03*
X55246000Y-143771000D03*
%TD*%
D15*
%TO.C,C56*%
X120699700Y-90881200D03*
X118974700Y-90881200D03*
%TD*%
D23*
%TO.C,Z7*%
X195387000Y-94762000D03*
X193487000Y-94762000D03*
X194437000Y-97262000D03*
%TD*%
%TO.C,Z11*%
X166944000Y-135849999D03*
X168844000Y-135849999D03*
X167894000Y-133349999D03*
%TD*%
D19*
%TO.C,R1*%
X237185200Y-139259816D03*
X237185200Y-141159816D03*
%TD*%
D41*
%TO.C,D18*%
X137186400Y-59639200D03*
X140486400Y-59639200D03*
%TD*%
D15*
%TO.C,C57*%
X177741300Y-91707900D03*
X176016300Y-91707900D03*
%TD*%
D23*
%TO.C,Z3*%
X126172000Y-90952000D03*
X124272000Y-90952000D03*
X125222000Y-93452000D03*
%TD*%
D15*
%TO.C,C55*%
X51813800Y-91643200D03*
X50088800Y-91643200D03*
%TD*%
D35*
%TO.C,U11*%
X157324000Y-131058000D03*
X155624000Y-131058000D03*
X153924000Y-131058000D03*
D36*
X156699000Y-137783000D03*
X151149000Y-137783000D03*
X156699000Y-142633000D03*
X151149000Y-142633000D03*
D35*
X152224000Y-131058000D03*
X150524000Y-131058000D03*
%TD*%
D17*
%TO.C,R15*%
X212648800Y-99769300D03*
X212648800Y-97944300D03*
%TD*%
D20*
%TO.C,R94*%
X129050000Y-141077500D03*
X129050000Y-142902500D03*
%TD*%
D27*
%TO.C,R50*%
X87122000Y-119126000D03*
X88947000Y-119126000D03*
%TD*%
D19*
%TO.C,C44*%
X76250800Y-68798400D03*
X76250800Y-70698400D03*
%TD*%
D68*
%TO.C,U1*%
X91866000Y-142679500D03*
X91216000Y-142679500D03*
X90566000Y-142679500D03*
X89916000Y-142679500D03*
X89266000Y-142679500D03*
X88616000Y-142679500D03*
X87966000Y-142679500D03*
X87966000Y-148404500D03*
X88616000Y-148404500D03*
X89266000Y-148404500D03*
X89916000Y-148404500D03*
X90566000Y-148404500D03*
X91216000Y-148404500D03*
X91866000Y-148404500D03*
%TD*%
D14*
%TO.C,R31*%
X191643000Y-67437000D03*
X191643000Y-73362000D03*
%TD*%
D17*
%TO.C,R22*%
X77978000Y-149502500D03*
X77978000Y-147677500D03*
%TD*%
%TO.C,R24*%
X93980000Y-118872000D03*
X93980000Y-117047000D03*
%TD*%
D65*
%TO.C,C58*%
X171323000Y-63919500D03*
X171323000Y-60794500D03*
%TD*%
D27*
%TO.C,R145*%
X208485100Y-56692800D03*
X210310100Y-56692800D03*
%TD*%
D20*
%TO.C,R26*%
X60900000Y-98987500D03*
X60900000Y-100812500D03*
%TD*%
D27*
%TO.C,R51*%
X94987500Y-129000000D03*
X96812500Y-129000000D03*
%TD*%
D14*
%TO.C,R41*%
X124714000Y-67818000D03*
X124714000Y-73743000D03*
%TD*%
D53*
%TO.C,R129*%
X144866435Y-68514035D03*
X143575965Y-67223565D03*
%TD*%
D69*
%TO.C,C12*%
X205689200Y-123623616D03*
X205689200Y-117123616D03*
%TD*%
D41*
%TO.C,D16*%
X117095000Y-59385200D03*
X120395000Y-59385200D03*
%TD*%
D10*
%TO.C,R128*%
X80566900Y-70662800D03*
X78741900Y-70662800D03*
%TD*%
D39*
%TO.C,C73*%
X189937500Y-102600000D03*
X191662500Y-102600000D03*
%TD*%
D17*
%TO.C,R122*%
X103886000Y-140208000D03*
X103886000Y-138383000D03*
%TD*%
%TO.C,R25*%
X62600000Y-100812500D03*
X62600000Y-98987500D03*
%TD*%
D29*
%TO.C,C36*%
X85090000Y-119025500D03*
X85090000Y-120750500D03*
%TD*%
D70*
%TO.C,C24*%
X106371751Y-118471751D03*
X105028249Y-117128249D03*
%TD*%
D20*
%TO.C,R160*%
X176225200Y-57050300D03*
X176225200Y-58875300D03*
%TD*%
D19*
%TO.C,C25*%
X198069200Y-120082816D03*
X198069200Y-121982816D03*
%TD*%
D31*
%TO.C,C40*%
X131102500Y-116332000D03*
X127977500Y-116332000D03*
%TD*%
D17*
%TO.C,R11*%
X212600000Y-93612500D03*
X212600000Y-91787500D03*
%TD*%
D23*
%TO.C,Z6*%
X140147000Y-97368999D03*
X142047000Y-97368999D03*
X141097000Y-94868999D03*
%TD*%
D71*
%TO.C,D5*%
X125872000Y-145304000D03*
X124572000Y-145304000D03*
X125222000Y-147304000D03*
%TD*%
D10*
%TO.C,R132*%
X204214100Y-69748400D03*
X202389100Y-69748400D03*
%TD*%
D55*
%TO.C,Q16*%
X197256400Y-149047200D03*
X195356400Y-149047200D03*
X196306400Y-150922200D03*
%TD*%
D14*
%TO.C,R43*%
X133250000Y-67818000D03*
X133250000Y-73743000D03*
%TD*%
D42*
%TO.C,R89*%
X192750400Y-152042700D03*
X192750400Y-148942700D03*
%TD*%
D29*
%TO.C,C71*%
X141274800Y-100533200D03*
X141274800Y-102258200D03*
%TD*%
D10*
%TO.C,R72*%
X44212500Y-112014000D03*
X42387500Y-112014000D03*
%TD*%
D13*
%TO.C,C60*%
X149164000Y-90271600D03*
X151064000Y-90271600D03*
%TD*%
D10*
%TO.C,R85*%
X132182500Y-130420000D03*
X130357500Y-130420000D03*
%TD*%
D15*
%TO.C,C19*%
X210869700Y-103632000D03*
X209144700Y-103632000D03*
%TD*%
D10*
%TO.C,R6*%
X237693200Y-123699816D03*
X235868200Y-123699816D03*
%TD*%
D17*
%TO.C,R121*%
X100330000Y-140208000D03*
X100330000Y-138383000D03*
%TD*%
%TO.C,R27*%
X92202000Y-118768500D03*
X92202000Y-116943500D03*
%TD*%
D45*
%TO.C,OPA2*%
X136692000Y-98938000D03*
X136692000Y-99888000D03*
X136692000Y-100838000D03*
X139192000Y-100838000D03*
X139192000Y-98938000D03*
%TD*%
D40*
%TO.C,C7*%
X236042200Y-127128816D03*
X234142200Y-127128816D03*
%TD*%
D18*
%TO.C,C97*%
X122682000Y-147166500D03*
X122682000Y-145441500D03*
%TD*%
D72*
%TO.C,IC1*%
X234268200Y-134749817D03*
X234268200Y-134099817D03*
X234268200Y-133449817D03*
X234268200Y-132799817D03*
X234268200Y-132149817D03*
X234268200Y-131499817D03*
X234268200Y-130849817D03*
X234268200Y-130199817D03*
X234268200Y-129549817D03*
X234268200Y-128899817D03*
X228418200Y-128899817D03*
X228418200Y-129549817D03*
X228418200Y-130199817D03*
X228418200Y-130849817D03*
X228418200Y-131499817D03*
X228418200Y-132149817D03*
X228418200Y-132799817D03*
X228418200Y-133449817D03*
X228418200Y-134099817D03*
X228418200Y-134749817D03*
D73*
X231343200Y-131824817D03*
%TD*%
D44*
%TO.C,C2*%
X239217200Y-133567316D03*
X239217200Y-136692316D03*
%TD*%
M02*
